<?xml version="1.0" encoding="UTF-8"?>
<!DOCTYPE svg PUBLIC "-//W3C//DTD SVG 1.1//EN" "http://www.w3.org/Graphics/SVG/1.1/DTD/svg11.dtd">
<!-- Creator: CorelDRAW X5 -->
<svg xmlns="http://www.w3.org/2000/svg" xml:space="preserve" width="11.6929in" height="8.26772in" style="shape-rendering:geometricPrecision; text-rendering:geometricPrecision; image-rendering:optimizeQuality; fill-rule:evenodd; clip-rule:evenodd"
viewBox="0 0 11693 8268"
 xmlns:xlink="http://www.w3.org/1999/xlink">
 <defs>
  <style type="text/css">
   <![CDATA[
    .fil0 {fill:black}
    .fil4 {fill:#000066}
    .fil3 {fill:#1A1A1A}
    .fil2 {fill:#333300}
    .fil6 {fill:#336699}
    .fil5 {fill:#9999FF}
    .fil1 {fill:#FF6666}
   ]]>
  </style>
   <clipPath id="id0">
    <rect x="1597" y="2248" width="2866" height="3153"/>
   </clipPath>
   <clipPath id="id1">
    <rect x="7088" y="2245" width="2785" height="3064"/>
   </clipPath>
 </defs>
 <g id="Layer_x0020_1">
  <metadata id="CorelCorpID_0Corel-Layer"/>
  <path class="fil0" d="M655 4123c0,-264 0,-527 0,-791 199,-1041 4568,-937 4669,0 -3,291 -6,582 -8,873 -85,1189 -4644,1104 -4661,-82z"/>
  <path class="fil1" d="M4844 5086c-1230,4 -2460,7 -3689,11 -264,273 -548,994 139,1059 180,17 322,-74 394,-240 -16,567 -110,1233 556,1241 460,5 526,-270 590,-539 114,0 228,0 342,0 81,246 95,514 556,548 580,42 739,-653 608,-1172 147,151 263,174 368,163 700,-75 418,-727 136,-1070z"/>
  <g id="_212277696">
   <g>
    <path class="fil2" d="M2292 5668c105,0 190,85 190,190 0,105 -85,190 -190,190 -105,0 -190,-85 -190,-190 0,-105 85,-190 190,-190zm0 -94c157,0 285,127 285,285 0,157 -127,285 -285,285 -157,0 -285,-127 -285,-285 0,-157 127,-285 285,-285z"/>
    <circle class="fil2" cx="2292" cy="5858" r="127"/>
   </g>
   <g>
    <path class="fil2" d="M3951 5542l-496 63 0 98 267 79 227 -144 2 -97zm0 0l38 -5c3,199 5,398 8,597 -1,21 -47,67 -75,70 -150,16 -301,33 -451,49 -33,3 -60,-32 -61,-53l4 -590 42 -5m0 0l496 -63m-572 21l650 -83c3,225 6,451 9,676 -1,24 -53,76 -85,79 -170,19 -339,37 -509,56 -37,3 -67,-36 -68,-60l4 -667z"/>
    <polygon class="fil2" points="3455,5735 3458,6221 3945,6150 3945,5684 3723,5833 "/>
   </g>
   <path class="fil2" d="M2982 5661l73 0 0 957 -73 0 0 -957zm-36 0l145 0 0 957 -145 0 0 -957z"/>
   <path class="fil2" d="M4839 5046c196,226 307,450 249,500 -58,50 -264,-92 -459,-318 100,-97 126,-107 210,-182z"/>
   <path class="fil2" d="M1188 5042c-196,226 -307,450 -249,500 58,50 264,-92 459,-318 -100,-97 -126,-107 -210,-182z"/>
   <path class="fil2" d="M1656 6279c-15,95 -14,159 11,208 409,304 749,343 1130,327 34,-20 61,-55 56,-150 -418,-34 -802,-95 -1196,-385z"/>
   <ellipse class="fil2" cx="4340" cy="6368" rx="56" ry="263"/>
  </g>
  <path class="fil3" d="M2947 5589l147 0c11,110 21,219 32,329 1,15 -6,22 -21,21 -63,0 -125,0 -188,0 -14,-1 -19,-9 -17,-22l46 -327zm31 188l79 0c6,37 12,73 17,110 1,5 -3,7 -11,7 -34,0 -68,0 -101,0 -8,0 -10,-3 -9,-7l25 -109z"/>
  <g style="clip-path:url(#id0)">
   <image id="thumbnailCAAURQ01.gif" transform="matrix(2.06363 0 0 2.06363 -10468.3 -3130.24)" x="5846" y="2606" width="1389" height="1528" xlink:href="../png/@stephan007.png"/>
  </g>
  <g id="_212277120">
   <path class="fil4" d="M761 3030c100,-891 1052,-1591 2213,-1591 459,0 886,109 1241,298l0 -357c-56,-21 -95,-73 -95,-135 0,-79 64,-144 144,-144 79,0 144,64 144,144 0,40 -16,76 -42,102 -14,14 -31,25 -50,33l0 414c467,277 789,696 864,1176 -1519,-717 -2992,-686 -4418,60z"/>
   <path class="fil4" d="M1001 4851c433,383 3354,451 3900,113 -191,774 -3387,1116 -3900,-113z"/>
  </g>
  <g id="_212276880">
   <path class="fil5" d="M2078 2344c-594,92 -1116,251 -1322,685 713,-713 3398,-730 4418,-60 -62,-173 -274,-431 -1299,-624 -73,-339 -353,-1319 -809,-1070 -59,-1 -117,-1 -176,-2 -547,-206 -715,784 -813,1070z"/>
   <path class="fil5" d="M768 4558c763,737 3453,757 4418,60 -212,857 -3676,1277 -4418,-60z"/>
  </g>
  <g id="_212276496">
   <path class="fil6" d="M749 4111c0,-253 0,-506 0,-759 191,-1000 4386,-900 4483,0 -3,279 -5,559 -8,838 -81,1141 -4459,1060 -4475,-79zm-155 40c0,-288 0,-576 0,-864 204,-1138 4688,-1024 4792,0 -3,318 -6,636 -9,954 -87,1299 -4766,1206 -4783,-90z"/>
   <polygon class="fil6" points="2891,1274 3068,1274 3139,2267 2846,2269 "/>
  </g>
  <path class="fil0" d="M6178 4123c0,-264 0,-527 0,-791 199,-1041 4568,-937 4669,0 -3,291 -6,582 -8,873 -85,1189 -4644,1104 -4661,-82z"/>
  <path class="fil1" d="M10366 5086c-1230,4 -2460,7 -3689,11 -264,273 -548,994 139,1059 180,17 322,-74 394,-240 -16,567 -110,1233 556,1241 460,5 526,-270 590,-539 114,0 228,0 342,0 81,246 95,514 556,548 580,42 739,-653 608,-1172 147,151 263,174 368,163 700,-75 418,-727 136,-1070z"/>
  <g style="clip-path:url(#id1)">
   <image id="thumbnail0987654.gif" transform="matrix(2.0054 0 0 2.0054 -4636.42 -2980.8)" x="5846" y="2606" width="1389" height="1528" xlink:href="../png/@agoncal.png"/>
  </g>
  <g id="_212274768">
   <g>
    <path class="fil2" d="M7814 5668c105,0 190,85 190,190 0,105 -85,190 -190,190 -105,0 -190,-85 -190,-190 0,-105 85,-190 190,-190zm0 -94c157,0 285,127 285,285 0,157 -127,285 -285,285 -157,0 -285,-127 -285,-285 0,-157 127,-285 285,-285z"/>
    <circle class="fil2" cx="7814" cy="5858" r="127"/>
   </g>
   <g>
    <path class="fil2" d="M9474 5542l-496 63 0 98 267 79 227 -144 2 -97zm0 0l38 -5c3,199 5,398 8,597 -1,21 -47,67 -75,70 -150,16 -301,33 -451,49 -33,3 -60,-32 -61,-53l4 -590 42 -5m0 0l496 -63m-572 21l650 -83c3,225 6,451 9,676 -1,24 -53,76 -85,79 -170,19 -339,37 -509,56 -37,3 -67,-36 -68,-60l4 -667z"/>
    <polygon class="fil2" points="8978,5735 8980,6221 9468,6150 9468,5684 9245,5833 "/>
   </g>
   <path class="fil2" d="M8504 5661l73 0 0 957 -73 0 0 -957zm-36 0l145 0 0 957 -145 0 0 -957z"/>
   <path class="fil2" d="M10361 5046c196,226 307,450 249,500 -58,50 -264,-92 -459,-318 100,-97 126,-107 210,-182z"/>
   <path class="fil2" d="M6710 5042c-196,226 -307,450 -249,500 58,50 264,-92 459,-318 -100,-97 -126,-107 -210,-182z"/>
   <path class="fil2" d="M7178 6279c-15,95 -14,159 11,208 409,304 749,343 1130,327 34,-20 61,-55 56,-150 -418,-34 -802,-95 -1196,-385z"/>
   <ellipse class="fil2" cx="9862" cy="6368" rx="56" ry="263"/>
  </g>
  <path class="fil3" d="M8470 5589l147 0c11,110 21,219 32,329 1,15 -6,22 -21,21 -63,0 -125,0 -188,0 -14,-1 -19,-9 -17,-22l46 -327zm31 188l79 0c6,37 12,73 17,110 1,5 -3,7 -11,7 -34,0 -68,0 -101,0 -8,0 -10,-3 -9,-7l25 -109z"/>
  <g id="_212274288">
   <path class="fil4" d="M6283 3030c100,-891 1052,-1591 2213,-1591 459,0 886,109 1241,298l0 -357c-56,-21 -95,-73 -95,-135 0,-79 64,-144 144,-144 79,0 144,64 144,144 0,40 -16,76 -42,102 -14,14 -31,25 -50,33l0 414c467,277 789,696 864,1176 -1519,-717 -2992,-686 -4418,60z"/>
   <path class="fil4" d="M6523 4851c433,383 3354,451 3900,113 -191,774 -3387,1116 -3900,-113z"/>
  </g>
  <g id="_212274048">
   <path class="fil5" d="M7601 2344c-594,92 -1116,251 -1322,685 713,-713 3398,-730 4418,-60 -62,-173 -274,-431 -1299,-624 -73,-339 -353,-1319 -809,-1070 -59,-1 -117,-1 -176,-2 -547,-206 -715,784 -813,1070z"/>
   <path class="fil5" d="M6290 4558c763,737 3453,757 4418,60 -212,857 -3676,1277 -4418,-60z"/>
  </g>
  <g id="_212273664">
   <path class="fil6" d="M6272 4111c0,-253 0,-506 0,-759 191,-1000 4386,-900 4483,0 -3,279 -5,559 -8,838 -81,1141 -4459,1060 -4475,-79zm-155 40c0,-288 0,-576 0,-864 204,-1138 4688,-1024 4792,0 -3,318 -6,636 -9,954 -87,1299 -4766,1206 -4783,-90z"/>
   <polygon class="fil6" points="8414,1274 8591,1274 8661,2267 8369,2269 "/>
  </g>
 </g>
</svg>
