<?xml version="1.0" encoding="UTF-8"?>
<!DOCTYPE svg PUBLIC "-//W3C//DTD SVG 1.1//EN" "http://www.w3.org/Graphics/SVG/1.1/DTD/svg11.dtd">
<!-- Creator: CorelDRAW X5 -->
<svg xmlns="http://www.w3.org/2000/svg" xml:space="preserve" width="11.6929in" height="8.26772in" style="shape-rendering:geometricPrecision; text-rendering:geometricPrecision; image-rendering:optimizeQuality; fill-rule:evenodd; clip-rule:evenodd"
viewBox="0 0 11693 8268"
 xmlns:xlink="http://www.w3.org/1999/xlink">
 <defs>
  <style type="text/css">
   <![CDATA[
    .fil12 {fill:none}
    .fil0 {fill:black}
    .fil7 {fill:#1A1A1A}
    .fil9 {fill:#333333}
    .fil6 {fill:#4D4D4D}
    .fil8 {fill:#B3B3B3}
    .fil3 {fill:fuchsia}
    .fil1 {fill:yellow}
    .fil11 {fill:url(#id2)}
    .fil10 {fill:url(#id3)}
    .fil5 {fill:url(#id4)}
    .fil2 {fill:url(#id5)}
    .fil4 {fill:url(#id6)}
   ]]>
  </style>
   <clipPath id="id0">
    <rect x="7001" y="5812" width="959" height="1054"/>
   </clipPath>
   <clipPath id="id1">
    <rect x="3422" y="5804" width="994" height="1093"/>
   </clipPath>
  <linearGradient id="id2" gradientUnits="userSpaceOnUse" x1="8027.36" y1="4860.56" x2="7183.77" y2="4860.56">
   <stop offset="0" style="stop-color:#990000"/>
   <stop offset="1" style="stop-color:red"/>
  </linearGradient>
  <linearGradient id="id3" gradientUnits="userSpaceOnUse" x1="8027.36" y1="5021.25" x2="7183.77" y2="5021.25">
   <stop offset="0" style="stop-color:#663300"/>
   <stop offset="1" style="stop-color:red"/>
  </linearGradient>
  <linearGradient id="id4" gradientUnits="userSpaceOnUse" xlink:href="#id2" x1="6532.71" y1="5892.61" x2="8700.74" y2="5892.61">
  </linearGradient>
  <linearGradient id="id5" gradientUnits="userSpaceOnUse" x1="7645.22" y1="4936.36" x2="7645.22" y2="517.874">
   <stop offset="0" style="stop-color:fuchsia"/>
   <stop offset="1" style="stop-color:#FFFF99"/>
  </linearGradient>
  <linearGradient id="id6" gradientUnits="userSpaceOnUse" x1="7593.87" y1="7780.94" x2="7593.87" y2="7182.78">
   <stop offset="0" style="stop-color:#663333"/>
   <stop offset="1" style="stop-color:red"/>
  </linearGradient>
 </defs>
 <g id="Layer_x0020_1">
  <metadata id="CorelCorpID_0Corel-Layer"/>
  <g style="clip-path:url(#id0)">
   <image id="thumbnailCAAURQ01.gif" transform="matrix(0.690147 0 0 0.690147 2965.89 4013.85)" x="5846" y="2606" width="1389" height="1528" xlink:href="codestory_space_capsule_Images\codestory_space_capsule_ImgID1.png"/>
  </g>
  <g id="_213013696">
   <g>
    <path class="fil0" d="M7183 6989c-46,57 -94,113 -143,169 -49,56 -99,111 -145,165 -36,4 -72,8 -108,12 47,-54 96,-108 146,-163 50,-55 99,-112 146,-168 35,-5 69,-10 104,-14z"/>
    <path class="fil1" d="M7093 7002c-46,56 -95,113 -145,168 -50,55 -100,110 -146,164 -36,4 -73,9 -109,13 47,-53 97,-107 148,-162 51,-55 101,-111 148,-167 35,-6 70,-11 104,-16z"/>
    <path class="fil1" d="M7272 6978c-45,57 -91,113 -140,169 -49,56 -98,111 -144,166 -36,4 -72,8 -108,12 46,-54 96,-109 146,-165 50,-55 97,-112 143,-169 34,-4 69,-8 103,-13z"/>
    <path class="fil0" d="M7362 6969c-44,56 -90,113 -138,169 -48,56 -97,111 -142,167 -36,3 -72,7 -108,11 46,-55 95,-110 144,-166 49,-56 96,-112 141,-169 34,-4 69,-8 103,-11z"/>
    <path class="fil1" d="M7452 6961c-43,56 -88,112 -135,168 -48,56 -96,112 -141,167 -36,3 -72,6 -107,10 46,-55 95,-110 143,-166 48,-56 94,-112 138,-169 34,-3 68,-7 103,-9z"/>
    <path class="fil0" d="M7540 6955c-42,55 -86,111 -132,166 -47,56 -94,111 -140,167 -36,3 -71,6 -107,9 45,-55 94,-111 141,-167 47,-55 92,-112 135,-168 34,-2 68,-5 102,-7z"/>
    <path class="fil0" d="M7625 7068c-28,34 -57,69 -86,103 -29,35 -58,69 -86,104 -36,2 -71,5 -106,7 45,-55 92,-111 138,-166 46,-55 89,-110 130,-165 3,0 7,0 11,0 0,19 1,39 1,58 0,19 -1,39 -2,58z"/>
    <path class="fil1" d="M7619 7181c-13,15 -25,29 -38,44 -12,15 -24,30 -36,45 -36,2 -71,4 -106,6 30,-38 62,-75 93,-113 32,-38 62,-75 93,-112 -1,22 -2,44 -3,65 -1,22 -3,44 -4,65z"/>
    <path class="fil0" d="M7615 7267c-28,1 -56,3 -84,4 14,-18 29,-36 43,-54 15,-18 30,-36 45,-54 -1,17 -2,34 -3,52 -1,17 -1,34 -1,52z"/>
    <path class="fil1" d="M7626 6955c-41,54 -83,108 -129,162 -46,55 -92,109 -137,164 -36,2 -71,5 -107,8 45,-56 93,-111 140,-167 46,-55 90,-111 132,-166 33,-2 66,-4 99,-5 0,1 0,3 0,4z"/>
    <path class="fil1" d="M6545 7096c-4,4 -8,9 -12,13 1,-4 1,-7 2,-11 3,-1 6,-1 10,-2z"/>
    <path class="fil0" d="M6637 7079c-20,22 -40,44 -61,65 -21,22 -43,43 -64,64 4,-18 8,-36 12,-55 4,-18 7,-36 10,-55 34,-6 68,-13 102,-19z"/>
    <path class="fil1" d="M6912 7030c-48,56 -99,112 -150,167 -51,54 -102,108 -149,160 -36,5 -73,9 -109,14 47,-52 98,-104 150,-158 52,-54 103,-109 153,-165 35,-6 70,-12 105,-18z"/>
    <path class="fil0" d="M7003 7015c-47,56 -97,112 -148,168 -51,55 -101,109 -148,162 -36,4 -73,9 -109,14 47,-53 97,-106 149,-160 52,-54 102,-110 150,-166 35,-6 70,-11 105,-17z"/>
    <path class="fil1" d="M6729 7062c-37,42 -76,83 -116,124 -40,41 -80,81 -119,120 3,-19 6,-38 10,-57 4,-19 8,-38 12,-57 18,-18 37,-36 55,-55 18,-18 35,-37 52,-56 35,-7 71,-13 106,-20z"/>
    <path class="fil0" d="M6821 7045c-49,56 -100,111 -153,165 -52,54 -103,107 -150,159 -10,1 -20,3 -30,4 0,-14 1,-27 3,-41 1,-14 3,-27 6,-41 37,-37 73,-74 110,-111 37,-38 73,-76 108,-115 35,-6 70,-13 106,-19z"/>
   </g>
   <g>
    <path class="fil0" d="M8248 6978c-35,44 -73,89 -114,135 -42,48 -86,97 -130,147 -35,0 -71,-1 -106,-1 43,-51 88,-102 131,-152 41,-48 79,-96 116,-142 34,4 68,8 103,13z"/>
    <path class="fil1" d="M8159 6967c-36,45 -74,93 -116,141 -43,49 -87,100 -131,151 -36,0 -71,0 -106,1 44,-53 89,-104 132,-156 42,-50 81,-99 118,-147 34,3 68,5 102,10z"/>
    <path class="fil1" d="M8337 6993c-35,41 -72,85 -112,129 -42,46 -86,93 -129,141 -35,-1 -71,-2 -106,-3 43,-50 88,-99 130,-147 41,-47 78,-92 114,-136 34,4 69,10 103,16z"/>
    <path class="fil0" d="M8428 7009c-34,39 -71,81 -110,123 -41,44 -85,89 -128,136 -36,-2 -71,-4 -106,-5 43,-49 87,-96 129,-142 40,-45 77,-89 112,-130 34,6 69,12 104,19z"/>
    <path class="fil1" d="M8520 7029c-34,37 -71,75 -110,115 -41,42 -84,85 -128,130 -36,-2 -71,-5 -107,-7 43,-47 87,-92 129,-137 40,-42 76,-84 110,-124 35,8 70,15 105,23z"/>
    <path class="fil0" d="M8611 7052c-34,33 -70,70 -108,107 -41,40 -85,80 -128,123 -36,-3 -71,-7 -107,-10 43,-45 87,-88 128,-130 39,-40 75,-79 110,-116 35,8 70,17 106,26z"/>
    <path class="fil0" d="M8720 7174c-24,21 -50,42 -76,64 -27,22 -55,45 -82,70 -36,-6 -72,-11 -108,-15 43,-41 87,-79 128,-117 38,-35 74,-68 108,-101 4,1 8,2 11,3 4,16 8,32 11,48 3,16 6,32 9,48z"/>
    <path class="fil1" d="M8728 7267c-12,9 -24,18 -36,28 -12,9 -24,19 -36,29 -37,-7 -73,-13 -109,-19 30,-26 60,-52 89,-76 28,-23 55,-46 81,-69 3,18 6,36 7,54 2,18 2,36 3,54z"/>
    <path class="fil0" d="M8728 7339c-29,-6 -58,-12 -87,-18 14,-12 29,-23 43,-34 14,-11 29,-22 43,-33 0,14 1,29 1,43 0,14 0,29 0,43z"/>
    <path class="fil1" d="M8701 7080c-33,32 -69,65 -107,99 -41,36 -84,74 -126,114 -36,-5 -72,-9 -108,-12 43,-43 87,-84 128,-124 39,-38 75,-75 108,-108 34,9 69,19 104,28 0,1 0,2 1,3z"/>
    <path class="fil1" d="M7629 6950c-3,4 -7,9 -10,13 0,-4 0,-9 0,-13 3,0 7,0 10,0z"/>
    <path class="fil0" d="M7717 6947c-16,21 -32,43 -48,64 -17,22 -34,43 -52,65 1,-21 2,-42 2,-63 0,-21 0,-42 -1,-63 33,-1 66,-2 99,-3z"/>
    <path class="fil1" d="M7982 6952c-37,50 -77,101 -120,152 -44,53 -89,105 -133,158 -35,1 -71,2 -106,4 45,-54 90,-108 135,-161 43,-52 84,-105 122,-156 34,1 68,3 102,4z"/>
    <path class="fil0" d="M8070 6959c-37,48 -76,97 -118,146 -43,51 -88,102 -132,155 -36,1 -71,1 -106,2 44,-54 89,-106 133,-159 43,-51 83,-102 121,-152 34,2 68,5 102,7z"/>
    <path class="fil1" d="M7805 6947c-30,40 -60,80 -92,120 -33,41 -68,82 -102,123 1,-22 3,-44 4,-65 1,-22 2,-44 3,-65 15,-19 30,-37 44,-56 14,-19 28,-37 42,-56 34,0 68,0 102,0z"/>
    <path class="fil0" d="M7893 6949c-38,51 -79,103 -122,155 -44,53 -90,107 -134,161 -10,0 -20,1 -29,1 0,-16 1,-31 1,-47 1,-16 2,-31 3,-47 32,-38 64,-76 94,-114 30,-37 58,-74 86,-111 34,0 68,1 102,2z"/>
   </g>
  </g>
  <g id="_213013264">
   <path class="fil2" d="M7624 518c-2768,54 -454,2395 0,4418 306,-1930 2810,-4246 0,-4418z"/>
   <path class="fil3" d="M7624 518c-1986,182 -333,2729 0,4418 -291,-1727 -1327,-4104 0,-4418z"/>
   <path class="fil3" d="M7610 518c1986,182 333,2729 0,4418 291,-1727 1327,-4104 0,-4418z"/>
   <path class="fil3" d="M7608 537c-238,81 -116,2734 0,4418 -68,-1775 826,-4170 0,-4418z"/>
  </g>
  <path class="fil4" d="M6489 7373c1348,-190 1915,-142 2240,-33 10,175 5,282 -37,288 -743,154 -1464,151 -2170,56 -72,-4 -41,-136 -33,-311z"/>
  <path class="fil5" d="M8701 7077c-516,-160 -1275,-114 -2165,20 2,-11 -3,10 0,0 107,-445 49,-966 320,-1334l328 -445c0,-124 0,-191 0,-316 340,-324 610,-248 844,40l0 321c285,303 367,528 365,719 103,331 223,658 308,994zm-1232 -1220c269,0 487,216 487,482 0,266 -218,482 -487,482 -269,0 -487,-216 -487,-482 0,-266 218,-482 487,-482z"/>
  <path class="fil6" d="M7480 5895c251,0 454,199 454,444 0,245 -203,444 -454,444 -251,0 -454,-199 -454,-444 0,-245 203,-444 454,-444zm0 -83c298,0 539,236 539,527 0,291 -241,527 -539,527 -298,0 -539,-236 -539,-527 0,-291 241,-527 539,-527z"/>
  <path class="fil7" d="M8483 6362c-31,-95 -61,-187 -90,-279 1,-151 -50,-323 -212,-538 -197,-188 -314,422 2,728 74,308 285,417 299,89z"/>
  <path class="fil8" d="M8488 6378c-16,166 -182,274 -305,-105l153 557 316 66c-42,-153 -121,-365 -164,-518z"/>
  <path class="fil6" d="M8607 6878c14,39 33,41 52,28 322,-553 230,-916 -325,-990 -22,16 -29,33 -19,52 451,56 638,322 292,910z"/>
  <path class="fil9" d="M8330 6833c18,45 40,47 64,32 393,-632 216,-992 -461,-1077 -26,18 -35,38 -24,59 550,64 842,312 421,986z"/>
  <path class="fil10" d="M7184 5318c350,-169 613,-103 844,46l0 -321c-233,-288 -503,-364 -844,-40 0,124 0,191 0,316z"/>
  <path class="fil11" d="M8027 5043c-252,-170 -539,-155 -844,-40 340,-324 610,-248 844,40z"/>
  <g style="clip-path:url(#id1)">
   <image id="thumbnail0987654.gif" transform="matrix(0.715673 0 0 0.715673 -762.147 3939.18)" x="5846" y="2606" width="1389" height="1528" xlink:href="codestory_space_capsule_Images\codestory_space_capsule_ImgID2.png"/>
  </g>
  <g id="_213006352">
   <g>
    <path class="fil0" d="M3646 6989c-46,57 -94,113 -143,169 -49,56 -99,111 -145,165 -36,4 -72,8 -108,12 47,-54 96,-108 146,-163 50,-55 99,-112 146,-168 35,-5 69,-10 104,-14z"/>
    <path class="fil1" d="M3555 7002c-46,56 -95,113 -145,168 -50,55 -100,110 -146,164 -36,4 -73,9 -109,13 47,-53 97,-107 148,-162 51,-55 101,-111 148,-167 35,-6 70,-11 104,-16z"/>
    <path class="fil1" d="M3735 6978c-45,57 -91,113 -140,169 -49,56 -98,111 -144,166 -36,4 -72,8 -108,12 46,-54 96,-109 146,-165 50,-55 97,-112 143,-169 34,-4 69,-8 103,-13z"/>
    <path class="fil0" d="M3824 6969c-44,56 -90,113 -138,169 -48,56 -97,111 -142,167 -36,3 -72,7 -108,11 46,-55 95,-110 144,-166 49,-56 96,-112 141,-169 34,-4 69,-8 103,-11z"/>
    <path class="fil1" d="M3914 6961c-43,56 -88,112 -135,168 -48,56 -96,112 -141,167 -36,3 -72,6 -107,10 46,-55 95,-110 143,-166 48,-56 94,-112 138,-169 34,-3 68,-7 103,-9z"/>
    <path class="fil0" d="M4003 6955c-42,55 -86,111 -132,166 -47,56 -94,111 -140,167 -36,3 -71,6 -107,9 45,-55 94,-111 141,-167 47,-55 92,-112 135,-168 34,-2 68,-5 102,-7z"/>
    <path class="fil0" d="M4088 7068c-28,34 -57,69 -86,103 -29,35 -58,69 -86,104 -36,2 -71,5 -106,7 45,-55 92,-111 138,-166 46,-55 89,-110 130,-165 3,0 7,0 11,0 0,19 1,39 1,58 0,19 -1,39 -2,58z"/>
    <path class="fil1" d="M4081 7181c-13,15 -25,29 -38,44 -12,15 -24,30 -36,45 -36,2 -71,4 -106,6 30,-38 62,-75 93,-113 32,-38 62,-75 93,-112 -1,22 -2,44 -3,65 -1,22 -3,44 -4,65z"/>
    <path class="fil0" d="M4078 7267c-28,1 -56,3 -84,4 14,-18 29,-36 43,-54 15,-18 30,-36 45,-54 -1,17 -2,34 -3,52 -1,17 -1,34 -1,52z"/>
    <path class="fil1" d="M4089 6955c-41,54 -83,108 -129,162 -46,55 -92,109 -137,164 -36,2 -71,5 -107,8 45,-56 93,-111 140,-167 46,-55 90,-111 132,-166 33,-2 66,-4 99,-5 0,1 0,3 0,4z"/>
    <path class="fil1" d="M3008 7096c-4,4 -8,9 -12,13 1,-4 1,-7 2,-11 3,-1 6,-1 10,-2z"/>
    <path class="fil0" d="M3100 7079c-20,22 -40,44 -61,65 -21,22 -43,43 -64,64 4,-18 8,-36 12,-55 4,-18 7,-36 10,-55 34,-6 68,-13 102,-19z"/>
    <path class="fil1" d="M3375 7030c-48,56 -99,112 -150,167 -51,54 -102,108 -149,160 -36,5 -73,9 -109,14 47,-52 98,-104 150,-158 52,-54 103,-109 153,-165 35,-6 70,-12 105,-18z"/>
    <path class="fil0" d="M3465 7015c-47,56 -97,112 -148,168 -51,55 -101,109 -148,162 -36,4 -73,9 -109,14 47,-53 97,-106 149,-160 52,-54 102,-110 150,-166 35,-6 70,-11 105,-17z"/>
    <path class="fil1" d="M3192 7062c-37,42 -76,83 -116,124 -40,41 -80,81 -119,120 3,-19 6,-38 10,-57 4,-19 8,-38 12,-57 18,-18 37,-36 55,-55 18,-18 35,-37 52,-56 35,-7 71,-13 106,-20z"/>
    <path class="fil0" d="M3284 7045c-49,56 -100,111 -153,165 -52,54 -103,107 -150,159 -10,1 -20,3 -30,4 0,-14 1,-27 3,-41 1,-14 3,-27 6,-41 37,-37 73,-74 110,-111 37,-38 73,-76 108,-115 35,-6 70,-13 106,-19z"/>
   </g>
   <g>
    <path class="fil0" d="M4710 6978c-35,44 -73,89 -114,135 -42,48 -86,97 -130,147 -35,0 -71,-1 -106,-1 43,-51 88,-102 131,-152 41,-48 79,-96 116,-142 34,4 68,8 103,13z"/>
    <path class="fil1" d="M4622 6967c-36,45 -74,93 -116,141 -43,49 -87,100 -131,151 -36,0 -71,0 -106,1 44,-53 89,-104 132,-156 42,-50 81,-99 118,-147 34,3 68,5 102,10z"/>
    <path class="fil1" d="M4800 6993c-35,41 -72,85 -112,129 -42,46 -86,93 -129,141 -35,-1 -71,-2 -106,-3 43,-50 88,-99 130,-147 41,-47 78,-92 114,-136 34,4 69,10 103,16z"/>
    <path class="fil0" d="M4890 7009c-34,39 -71,81 -110,123 -41,44 -85,89 -128,136 -36,-2 -71,-4 -106,-5 43,-49 87,-96 129,-142 40,-45 77,-89 112,-130 34,6 69,12 104,19z"/>
    <path class="fil1" d="M4982 7029c-34,37 -71,75 -110,115 -41,42 -84,85 -128,130 -36,-2 -71,-5 -107,-7 43,-47 87,-92 129,-137 40,-42 76,-84 110,-124 35,8 70,15 105,23z"/>
    <path class="fil0" d="M5074 7052c-34,33 -70,70 -108,107 -41,40 -85,80 -128,123 -36,-3 -71,-7 -107,-10 43,-45 87,-88 128,-130 39,-40 75,-79 110,-116 35,8 70,17 106,26z"/>
    <path class="fil0" d="M5183 7174c-24,21 -50,42 -76,64 -27,22 -55,45 -82,70 -36,-6 -72,-11 -108,-15 43,-41 87,-79 128,-117 38,-35 74,-68 108,-101 4,1 8,2 11,3 4,16 8,32 11,48 3,16 6,32 9,48z"/>
    <path class="fil1" d="M5190 7267c-12,9 -24,18 -36,28 -12,9 -24,19 -36,29 -37,-7 -73,-13 -109,-19 30,-26 60,-52 89,-76 28,-23 55,-46 81,-69 3,18 6,36 7,54 2,18 2,36 3,54z"/>
    <path class="fil0" d="M5191 7339c-29,-6 -58,-12 -87,-18 14,-12 29,-23 43,-34 14,-11 29,-22 43,-33 0,14 1,29 1,43 0,14 0,29 0,43z"/>
    <path class="fil1" d="M5164 7080c-33,32 -69,65 -107,99 -41,36 -84,74 -126,114 -36,-5 -72,-9 -108,-12 43,-43 87,-84 128,-124 39,-38 75,-75 108,-108 34,9 69,19 104,28 0,1 0,2 1,3z"/>
    <path class="fil1" d="M4091 6950c-3,4 -7,9 -10,13 0,-4 0,-9 0,-13 3,0 7,0 10,0z"/>
    <path class="fil0" d="M4179 6947c-16,21 -32,43 -48,64 -17,22 -34,43 -52,65 1,-21 2,-42 2,-63 0,-21 0,-42 -1,-63 33,-1 66,-2 99,-3z"/>
    <path class="fil1" d="M4444 6952c-37,50 -77,101 -120,152 -44,53 -89,105 -133,158 -35,1 -71,2 -106,4 45,-54 90,-108 135,-161 43,-52 84,-105 122,-156 34,1 68,3 102,4z"/>
    <path class="fil0" d="M4533 6959c-37,48 -76,97 -118,146 -43,51 -88,102 -132,155 -36,1 -71,1 -106,2 44,-54 89,-106 133,-159 43,-51 83,-102 121,-152 34,2 68,5 102,7z"/>
    <path class="fil1" d="M4268 6947c-30,40 -60,80 -92,120 -33,41 -68,82 -102,123 1,-22 3,-44 4,-65 1,-22 2,-44 3,-65 15,-19 30,-37 44,-56 14,-19 28,-37 42,-56 34,0 68,0 102,0z"/>
    <path class="fil0" d="M4356 6949c-38,51 -79,103 -122,155 -44,53 -90,107 -134,161 -10,0 -20,1 -29,1 0,-16 1,-31 1,-47 1,-16 2,-31 3,-47 32,-38 64,-76 94,-114 30,-37 58,-74 86,-111 34,0 68,1 102,2z"/>
   </g>
  </g>
  <g id="_213005920">
   <path class="fil2" d="M4086 518c-2768,54 -454,2395 0,4418 306,-1930 2810,-4246 0,-4418z"/>
   <path class="fil3" d="M4086 518c-1986,182 -333,2729 0,4418 -291,-1727 -1327,-4104 0,-4418z"/>
   <path class="fil3" d="M4072 518c1986,182 333,2729 0,4418 291,-1727 1327,-4104 0,-4418z"/>
   <path class="fil3" d="M4071 537c-238,81 -116,2734 0,4418 -68,-1775 826,-4170 0,-4418z"/>
  </g>
  <path class="fil4" d="M2951 7373c1348,-190 1915,-142 2240,-33 10,175 5,282 -37,288 -743,154 -1464,151 -2170,56 -72,-4 -41,-136 -33,-311z"/>
  <path class="fil5" d="M5163 7077c-516,-160 -1275,-114 -2165,20 2,-11 -3,10 0,0 107,-445 49,-966 320,-1334l328 -445c0,-124 0,-191 0,-316 340,-324 610,-248 844,40l0 321c285,303 367,528 365,719 103,331 223,658 308,994zm-1232 -1220c269,0 487,216 487,482 0,266 -218,482 -487,482 -269,0 -487,-216 -487,-482 0,-266 218,-482 487,-482z"/>
  <path class="fil6" d="M3943 5895c251,0 454,199 454,444 0,245 -203,444 -454,444 -251,0 -454,-199 -454,-444 0,-245 203,-444 454,-444zm0 -83c298,0 539,236 539,527 0,291 -241,527 -539,527 -298,0 -539,-236 -539,-527 0,-291 241,-527 539,-527z"/>
  <path class="fil7" d="M4945 6362c-31,-95 -61,-187 -90,-279 1,-151 -50,-323 -212,-538 -197,-188 -314,422 2,728 74,308 285,417 299,89z"/>
  <path class="fil8" d="M4950 6378c-16,166 -182,274 -305,-105l153 557 316 66c-42,-153 -121,-365 -164,-518z"/>
  <path class="fil6" d="M5069 6878c14,39 33,41 52,28 322,-553 230,-916 -325,-990 -22,16 -29,33 -19,52 451,56 638,322 292,910z"/>
  <path class="fil9" d="M4792 6833c18,45 40,47 64,32 393,-632 216,-992 -461,-1077 -26,18 -35,38 -24,59 550,64 842,312 421,986z"/>
  <path class="fil10" d="M3646 5318c350,-169 613,-103 844,46l0 -321c-233,-288 -503,-364 -844,-40 0,124 0,191 0,316z"/>
  <path class="fil11" d="M4490 5043c-252,-170 -539,-155 -844,-40 340,-324 610,-248 844,40z"/>
  <ellipse class="fil12" cx="3931" cy="6339" rx="487" ry="482"/>
 </g>
</svg>
