<?xml version="1.0" encoding="UTF-8"?>
<!DOCTYPE svg PUBLIC "-//W3C//DTD SVG 1.1//EN" "http://www.w3.org/Graphics/SVG/1.1/DTD/svg11.dtd">
<!-- Creator: CorelDRAW X5 -->
<svg xmlns="http://www.w3.org/2000/svg" xml:space="preserve" width="11.6929in" height="8.26772in" style="shape-rendering:geometricPrecision; text-rendering:geometricPrecision; image-rendering:optimizeQuality; fill-rule:evenodd; clip-rule:evenodd"
viewBox="0 0 11693 8268"
 xmlns:xlink="http://www.w3.org/1999/xlink">
 <defs>
  <style type="text/css">
   <![CDATA[
    .str0 {stroke:black;stroke-width:41.6654;stroke-linecap:round}
    .fil0 {fill:none}
    .fil3 {fill:black}
    .fil6 {fill:#000066}
    .fil5 {fill:#1A1A1A}
    .fil4 {fill:#333300}
    .fil8 {fill:#336699}
    .fil7 {fill:#9999FF}
    .fil1 {fill:#CC3300}
    .fil2 {fill:#FF6666}
   ]]>
  </style>
    <clipPath id="id0">
     <rect x="5125" y="5712" width="1308" height="1438"/>
    </clipPath>
 </defs>
 <g id="Layer_x0020_1">
  <metadata id="CorelCorpID_0Corel-Layer"/>
  <line class="fil0 str0" x1="2452" y1="2380" x2="4823" y2= "6281" />
  <line class="fil0 str0" x1="6679" y1="6299" x2="9241" y2= "2380" />
  <line class="fil0 str0" x1="3925" y1="2767" x2="5135" y2= "5596" />
  <line class="fil0 str0" x1="7697" y1="2741" x2="6415" y2= "5649" />
  <line class="fil0 str0" x1="5190" y1="2916" x2="5516" y2= "5422" />
  <line class="fil0 str0" x1="6461" y1="2899" x2="5992" y2= "5426" />
  <path class="fil1" d="M5846 650c1931,0 3496,783 3496,1748 -134,271 -344,354 -662,175 -359,87 -707,160 -1046,217 -454,277 -892,326 -1317,153 -347,21 -686,25 -1019,12 -460,172 -894,147 -1303,-136 -347,-60 -691,-137 -1035,-233 -301,117 -499,45 -611,-188 0,-965 1565,-1748 3496,-1748z"/>
  <path class="fil2" d="M2974 2590c286,270 636,323 1031,231 286,-833 1011,-1519 1842,-2171 -1261,409 -2448,876 -2872,1940z"/>
  <path class="fil2" d="M8696 2590c-286,270 -636,323 -1031,231 -286,-833 -1011,-1519 -1842,-2171 1261,409 2448,876 2872,1940z"/>
  <path class="fil2" d="M6325 2942c-204,215 -801,226 -1032,12 -286,-833 316,-1409 531,-2305 395,791 674,1310 501,2292z"/>
  <g id="_212370160">
   <path class="fil3" d="M4695 6567c0,-120 0,-241 0,-361 91,-475 2084,-428 2130,0 -1,133 -3,266 -4,398 -39,542 -2119,504 -2126,-38z"/>
   <path class="fil2" d="M6606 7006c-561,2 -1122,3 -1683,5 -120,125 -250,453 64,483 82,8 147,-34 180,-109 -7,259 -50,562 254,566 210,2 240,-123 269,-246 52,0 104,0 156,0 37,112 43,235 254,250 265,19 337,-298 277,-535 67,69 120,79 168,74 319,-34 191,-332 62,-488z"/>
   <g>
    <g>
     <path class="fil4" d="M5442 7272c48,0 87,39 87,87 0,48 -39,87 -87,87 -48,0 -87,-39 -87,-87 0,-48 39,-87 87,-87zm0 -43c72,0 130,58 130,130 0,72 -58,130 -130,130 -72,0 -130,-58 -130,-130 0,-72 58,-130 130,-130z"/>
     <circle class="fil4" cx="5442" cy="7359" r="58"/>
    </g>
    <g>
     <path class="fil4" d="M6199 7214l-226 29 0 45 122 36 104 -66 1 -44zm0 0l18 -2c1,91 2,182 3,272 0,10 -22,30 -34,32 -69,7 -137,15 -206,22 -15,1 -27,-14 -28,-24l2 -269 19 -2m0 0l226 -29m-261 10l296 -38c1,103 3,206 4,308 0,11 -24,35 -39,36 -77,8 -155,17 -232,25 -17,1 -31,-16 -31,-27l2 -305z"/>
     <polygon class="fil4" points="5973,7303 5974,7524 6196,7492 6196,7279 6095,7347 "/>
    </g>
    <path class="fil4" d="M5757 7269l33 0 0 436 -33 0 0 -436zm-17 0l66 0 0 436 -66 0 0 -436z"/>
    <path class="fil4" d="M6604 6988c89,103 140,205 114,228 -26,23 -120,-42 -210,-145 46,-44 58,-49 96,-83z"/>
    <path class="fil4" d="M4938 6986c-89,103 -140,205 -114,228 26,23 120,-42 210,-145 -46,-44 -58,-49 -96,-83z"/>
    <path class="fil4" d="M5152 7551c-7,43 -6,72 5,95 187,139 342,156 515,149 16,-9 28,-25 25,-68 -191,-15 -366,-43 -546,-176z"/>
    <ellipse class="fil4" cx="6376" cy="7592" rx="26" ry="120"/>
   </g>
   <path class="fil5" d="M5741 7236l67 0c5,50 10,100 15,150 1,7 -3,10 -10,10 -29,0 -57,0 -86,0 -7,0 -9,-4 -8,-10l21 -149zm14 86l36 0c3,17 5,33 8,50 0,2 -1,3 -5,3 -15,0 -31,0 -46,0 -4,0 -5,-1 -4,-3l11 -50z"/>
   <g style="clip-path:url(#id0)">
    <image id="thumbnailCAAURQ01.gif" transform="matrix(0.941458 0 0 0.941458 -379.421 3258.13)" x="5846" y="2606" width="1389" height="1528" xlink:href="../png/@stephan007.png"/>
   </g>
   <g>
    <path class="fil6" d="M4743 6068c45,-407 480,-726 1010,-726 210,0 404,50 566,136l0 -163c-25,-9 -43,-33 -43,-62 0,-36 29,-66 66,-66 36,0 66,29 66,66 0,18 -7,35 -19,46 -7,6 -14,12 -23,15l0 189c213,126 360,318 394,536 -693,-327 -1365,-313 -2016,27z"/>
    <path class="fil6" d="M4853 6899c197,175 1530,206 1779,52 -87,353 -1545,509 -1779,-52z"/>
   </g>
   <g>
    <path class="fil7" d="M5344 5755c-271,42 -509,114 -603,313 325,-325 1550,-333 2016,-27 -28,-79 -125,-196 -593,-285 -33,-155 -161,-602 -369,-488 -27,0 -54,0 -80,-1 -250,-94 -326,358 -371,488z"/>
    <path class="fil7" d="M4747 6766c348,336 1576,345 2016,27 -97,391 -1677,583 -2016,-27z"/>
   </g>
   <g>
    <path class="fil8" d="M4738 6562c0,-115 0,-231 0,-346 87,-456 2001,-411 2045,0 -1,128 -2,255 -4,383 -37,521 -2034,483 -2041,-36zm-71 18c0,-131 0,-263 0,-394 93,-519 2139,-467 2186,0 -1,145 -3,290 -4,435 -40,592 -2174,550 -2182,-41z"/>
    <polygon class="fil8" points="5715,5267 5796,5267 5828,5721 5695,5721 "/>
   </g>
  </g>
 </g>
</svg>
