<?xml version="1.0" encoding="UTF-8"?>
<!DOCTYPE svg PUBLIC "-//W3C//DTD SVG 1.1//EN" "http://www.w3.org/Graphics/SVG/1.1/DTD/svg11.dtd">
<!-- Creator: CorelDRAW X5 -->
<svg xmlns="http://www.w3.org/2000/svg" xml:space="preserve" width="11.6929in" height="8.26772in" style="shape-rendering:geometricPrecision; text-rendering:geometricPrecision; image-rendering:optimizeQuality; fill-rule:evenodd; clip-rule:evenodd"
viewBox="0 0 11693 8268"
 xmlns:xlink="http://www.w3.org/1999/xlink">
 <defs>
  <style type="text/css">
   <![CDATA[
    .str0 {stroke:black;stroke-width:41.6654;stroke-linecap:round}
    .fil0 {fill:none}
    .fil1 {fill:#CC3300}
    .fil2 {fill:#FF6666}
   ]]>
  </style>
 </defs>
 <g id="Layer_x0020_1">
  <metadata id="CorelCorpID_0Corel-Layer"/>
  <g id="_215839080">
   <line class="fil0 str0" x1="2452" y1="3035" x2="4839" y2= "6963" />
   <line class="fil0 str0" x1="6672" y1="6963" x2="9241" y2= "3035" />
   <line class="fil0 str0" x1="3912" y1="3391" x2="5439" y2= "6963" />
   <line class="fil0 str0" x1="7697" y1="3396" x2="6124" y2= "6963" />
   <line class="fil0 str0" x1="5190" y1="3571" x2="5631" y2= "6963" />
   <line class="fil0 str0" x1="6461" y1="3554" x2="5829" y2= "6963" />
   <path class="fil1" d="M5846 1305c1931,0 3496,783 3496,1748 -134,271 -344,354 -662,175 -359,87 -707,160 -1046,217 -454,277 -892,326 -1317,153 -347,21 -686,25 -1019,12 -460,172 -894,147 -1303,-136 -347,-60 -691,-137 -1035,-233 -301,117 -499,45 -611,-188 0,-965 1565,-1748 3496,-1748z"/>
   <path class="fil2" d="M2974 3244c286,270 636,323 1031,231 286,-833 1011,-1519 1842,-2171 -1261,409 -2448,876 -2872,1940z"/>
   <path class="fil2" d="M8696 3244c-286,270 -636,323 -1031,231 -286,-833 -1011,-1519 -1842,-2171 1261,409 2448,876 2872,1940z"/>
   <path class="fil2" d="M6325 3597c-204,215 -801,226 -1032,12 -286,-833 316,-1409 531,-2305 395,791 674,1310 501,2292z"/>
  </g>
 </g>
</svg>
