<?xml version="1.0" encoding="UTF-8"?>
<!DOCTYPE svg PUBLIC "-//W3C//DTD SVG 1.1//EN" "http://www.w3.org/Graphics/SVG/1.1/DTD/svg11.dtd">
<!-- Creator: CorelDRAW X5 -->
<svg xmlns="http://www.w3.org/2000/svg" xml:space="preserve" width="11.6929in" height="8.26772in" style="shape-rendering:geometricPrecision; text-rendering:geometricPrecision; image-rendering:optimizeQuality; fill-rule:evenodd; clip-rule:evenodd"
viewBox="0 0 11693 8268"
 xmlns:xlink="http://www.w3.org/1999/xlink">
 <defs>
  <style type="text/css">
   <![CDATA[
    .str0 {stroke:black;stroke-width:41.6654;stroke-linecap:round}
    .fil0 {fill:none}
    .fil3 {fill:black}
    .fil6 {fill:#000066}
    .fil5 {fill:#1A1A1A}
    .fil4 {fill:#333300}
    .fil8 {fill:#336699}
    .fil7 {fill:#9999FF}
    .fil1 {fill:#CC3300}
    .fil2 {fill:#FF6666}
   ]]>
  </style>
      <clipPath id="id0">
       <rect x="3565" y="5542" width="1308" height="1438"/>
      </clipPath>
      <clipPath id="id1">
       <rect x="7133" y="5543" width="1308" height="1438"/>
      </clipPath>
 </defs>
 <g id="Layer_x0020_1">
  <metadata id="CorelCorpID_0Corel-Layer"/>
  <g id="_212374384">
   <g>
    <line class="fil0 str0" x1="2871" y1="2212" x2="3830" y2= "6112" />
    <line class="fil0 str0" x1="4580" y1="6130" x2="5616" y2= "2212" />
    <line class="fil0 str0" x1="3467" y1="2599" x2="3956" y2= "5427" />
    <line class="fil0 str0" x1="4992" y1="2572" x2="4474" y2= "5480" />
    <line class="fil0 str0" x1="3979" y1="2747" x2="4110" y2= "5253" />
    <line class="fil0 str0" x1="4492" y1="2730" x2="4303" y2= "5257" />
    <path class="fil1" d="M4244 481c781,0 1413,783 1413,1748 -54,271 -139,354 -267,175 -145,87 -286,160 -423,217 -184,277 -361,326 -533,153 -140,21 -277,25 -412,12 -186,172 -362,147 -527,-136 -140,-60 -279,-137 -418,-233 -122,117 -202,45 -247,-188 0,-965 633,-1748 1413,-1748z"/>
    <path class="fil2" d="M3082 2421c116,270 257,323 417,231 116,-833 409,-1519 745,-2171 -510,409 -990,876 -1161,1940z"/>
    <path class="fil2" d="M5396 2421c-116,270 -257,323 -417,231 -116,-833 -409,-1519 -745,-2171 510,409 990,876 1161,1940z"/>
    <path class="fil2" d="M4437 2773c-83,215 -324,226 -417,12 -116,-833 128,-1409 215,-2305 160,791 273,1310 203,2292z"/>
    <g>
     <path class="fil3" d="M3135 6398c0,-120 0,-241 0,-361 91,-475 2084,-428 2130,0 -1,133 -3,266 -4,398 -39,542 -2119,504 -2126,-38z"/>
     <path class="fil2" d="M5046 6837c-561,2 -1122,3 -1683,5 -120,125 -250,453 64,483 82,8 147,-34 180,-109 -7,259 -50,562 254,566 210,2 240,-123 269,-246 52,0 104,0 156,0 37,112 43,235 254,250 265,19 337,-298 277,-535 67,69 120,79 168,74 319,-34 191,-332 62,-488z"/>
     <g>
      <g>
       <path class="fil4" d="M3882 7102c48,0 87,39 87,87 0,48 -39,87 -87,87 -48,0 -87,-39 -87,-87 0,-48 39,-87 87,-87zm0 -43c72,0 130,58 130,130 0,72 -58,130 -130,130 -72,0 -130,-58 -130,-130 0,-72 58,-130 130,-130z"/>
       <circle class="fil4" cx="3882" cy="7189" r="58"/>
      </g>
      <g>
       <path class="fil4" d="M4639 7045l-226 29 0 45 122 36 104 -66 1 -44zm0 0l18 -2c1,91 2,182 3,272 0,10 -22,30 -34,32 -69,7 -137,15 -206,22 -15,1 -27,-14 -28,-24l2 -269 19 -2m0 0l226 -29m-261 10l296 -38c1,103 3,206 4,308 0,11 -24,35 -39,36 -77,8 -155,17 -232,25 -17,1 -31,-16 -31,-27l2 -305z"/>
       <polygon class="fil4" points="4413,7133 4414,7355 4636,7322 4636,7110 4535,7178 "/>
      </g>
      <path class="fil4" d="M4197 7099l33 0 0 436 -33 0 0 -436zm-17 0l66 0 0 436 -66 0 0 -436z"/>
      <path class="fil4" d="M5044 6819c89,103 140,205 114,228 -26,23 -120,-42 -210,-145 46,-44 58,-49 96,-83z"/>
      <path class="fil4" d="M3378 6817c-89,103 -140,205 -114,228 26,23 120,-42 210,-145 -46,-44 -58,-49 -96,-83z"/>
      <path class="fil4" d="M3592 7381c-7,43 -6,72 5,95 187,139 342,156 515,149 16,-9 28,-25 25,-68 -191,-15 -366,-43 -546,-176z"/>
      <ellipse class="fil4" cx="4816" cy="7422" rx="26" ry="120"/>
     </g>
     <path class="fil5" d="M4181 7067l67 0c5,50 10,100 15,150 1,7 -3,10 -10,10 -29,0 -57,0 -86,0 -7,0 -9,-4 -8,-10l21 -149zm14 86l36 0c3,17 5,33 8,50 0,2 -1,3 -5,3 -15,0 -31,0 -46,0 -4,0 -5,-1 -4,-3l11 -50z"/>
     <g style="clip-path:url(#id0)">
      <image id="thumbnailCAAURQ01.gif" transform="matrix(0.941458 0 0 0.941458 -1939.25 3088.67)" x="5846" y="2606" width="1389" height="1528" xlink:href="../png/@stephan007.png"/>
     </g>
     <g>
      <path class="fil6" d="M3184 5899c45,-407 480,-726 1010,-726 210,0 404,50 566,136l0 -163c-25,-9 -43,-33 -43,-62 0,-36 29,-66 66,-66 36,0 66,29 66,66 0,18 -7,35 -19,46 -7,6 -14,12 -23,15l0 189c213,126 360,318 394,536 -693,-327 -1365,-313 -2016,27z"/>
      <path class="fil6" d="M3293 6730c197,175 1530,206 1779,52 -87,353 -1545,509 -1779,-52z"/>
     </g>
     <g>
      <path class="fil7" d="M3785 5586c-271,42 -509,114 -603,313 325,-325 1550,-333 2016,-27 -28,-79 -125,-196 -593,-285 -33,-155 -161,-602 -369,-488 -27,0 -54,0 -80,-1 -250,-94 -326,358 -371,488z"/>
      <path class="fil7" d="M3187 6596c348,336 1576,345 2016,27 -97,391 -1677,583 -2016,-27z"/>
     </g>
     <g>
      <path class="fil8" d="M3178 6392c0,-115 0,-231 0,-346 87,-456 2001,-411 2045,0 -1,128 -2,255 -4,383 -37,521 -2034,483 -2041,-36zm-71 18c0,-131 0,-263 0,-394 93,-519 2139,-467 2186,0 -1,145 -3,290 -4,435 -40,592 -2174,550 -2182,-41z"/>
      <polygon class="fil8" points="4155,5098 4236,5098 4268,5551 4135,5552 "/>
     </g>
    </g>
   </g>
   <g>
    <line class="fil0 str0" x1="7034" y1="2212" x2="7558" y2= "6112" />
    <line class="fil0 str0" x1="7969" y1="6130" x2="8536" y2= "2212" />
    <line class="fil0 str0" x1="7360" y1="2599" x2="7627" y2= "5427" />
    <line class="fil0 str0" x1="8194" y1="2572" x2="7911" y2= "5480" />
    <line class="fil0 str0" x1="7640" y1="2747" x2="7712" y2= "5253" />
    <line class="fil0 str0" x1="7921" y1="2730" x2="7817" y2= "5257" />
    <path class="fil1" d="M7785 481c427,0 773,783 773,1748 -30,271 -76,354 -146,175 -79,87 -156,160 -231,217 -100,277 -197,326 -291,153 -77,21 -152,25 -225,12 -102,172 -198,147 -288,-136 -77,-60 -153,-137 -229,-233 -66,117 -110,45 -135,-188 0,-965 346,-1748 773,-1748z"/>
    <path class="fil2" d="M7149 2421c63,270 141,323 228,231 63,-833 224,-1519 407,-2171 -279,409 -542,876 -635,1940z"/>
    <path class="fil2" d="M8415 2421c-63,270 -141,323 -228,231 -63,-833 -224,-1519 -407,-2171 279,409 542,876 635,1940z"/>
    <path class="fil2" d="M7891 2773c-45,215 -177,226 -228,12 -63,-833 70,-1409 118,-2305 87,791 149,1310 111,2292z"/>
    <g>
     <path class="fil3" d="M6704 6398c0,-120 0,-241 0,-361 91,-475 2084,-428 2130,0 -1,133 -3,266 -4,398 -39,542 -2119,504 -2126,-38z"/>
     <path class="fil2" d="M8615 6837c-561,2 -1122,3 -1683,5 -120,125 -250,453 64,483 82,8 147,-34 180,-109 -7,259 -50,562 254,566 210,2 240,-123 269,-246 52,0 104,0 156,0 37,112 43,235 254,250 265,19 337,-298 277,-535 67,69 120,79 168,74 319,-34 191,-332 62,-488z"/>
     <g>
      <g>
       <path class="fil4" d="M7451 7103c48,0 87,39 87,87 0,48 -39,87 -87,87 -48,0 -87,-39 -87,-87 0,-48 39,-87 87,-87zm0 -43c72,0 130,58 130,130 0,72 -58,130 -130,130 -72,0 -130,-58 -130,-130 0,-72 58,-130 130,-130z"/>
       <circle class="fil4" cx="7451" cy="7190" r="58"/>
      </g>
      <g>
       <path class="fil4" d="M8208 7045l-226 29 0 45 122 36 104 -66 1 -44zm0 0l18 -2c1,91 2,182 3,272 0,10 -22,30 -34,32 -69,7 -137,15 -206,22 -15,1 -27,-14 -28,-24l2 -269 19 -2m0 0l226 -29m-261 10l296 -38c1,103 3,206 4,308 0,11 -24,35 -39,36 -77,8 -155,17 -232,25 -17,1 -31,-16 -31,-27l2 -305z"/>
       <polygon class="fil4" points="7981,7134 7982,7355 8205,7323 8205,7110 8103,7178 "/>
      </g>
      <path class="fil4" d="M7765 7100l33 0 0 436 -33 0 0 -436zm-17 0l66 0 0 436 -66 0 0 -436z"/>
      <path class="fil4" d="M8613 6819c89,103 140,205 114,228 -26,23 -120,-42 -210,-145 46,-44 58,-49 96,-83z"/>
      <path class="fil4" d="M6947 6817c-89,103 -140,205 -114,228 26,23 120,-42 210,-145 -46,-44 -58,-49 -96,-83z"/>
      <path class="fil4" d="M7160 7382c-7,43 -6,72 5,95 187,139 342,156 515,149 16,-9 28,-25 25,-68 -191,-15 -366,-43 -546,-176z"/>
      <ellipse class="fil4" cx="8385" cy="7423" rx="26" ry="120"/>
     </g>
     <path class="fil5" d="M7750 7067l67 0c5,50 10,100 15,150 1,7 -3,10 -10,10 -29,0 -57,0 -86,0 -7,0 -9,-4 -8,-10l21 -149zm14 86l36 0c3,17 5,33 8,50 0,2 -1,3 -5,3 -15,0 -31,0 -46,0 -4,0 -5,-1 -4,-3l11 -50z"/>
     <g style="clip-path:url(#id1)">
      <image id="thumbnailCAAURQ01.gif_0" transform="matrix(0.941458 0 0 0.941458 1629.27 3089.15)" x="5846" y="2606" width="1389" height="1528" xlink:href="../png/@agoncal.png"/>
     </g>
     <g>
      <path class="fil6" d="M6752 5899c45,-407 480,-726 1010,-726 210,0 404,50 566,136l0 -163c-25,-9 -43,-33 -43,-62 0,-36 29,-66 66,-66 36,0 66,29 66,66 0,18 -7,35 -19,46 -7,6 -14,12 -23,15l0 189c213,126 360,318 394,536 -693,-327 -1365,-313 -2016,27z"/>
      <path class="fil6" d="M6862 6730c197,175 1530,206 1779,52 -87,353 -1545,509 -1779,-52z"/>
     </g>
     <g>
      <path class="fil7" d="M7353 5586c-271,42 -509,114 -603,313 325,-325 1550,-333 2016,-27 -28,-79 -125,-196 -593,-285 -33,-155 -161,-602 -369,-488 -27,0 -54,0 -80,-1 -250,-94 -326,358 -371,488z"/>
      <path class="fil7" d="M6755 6597c348,336 1576,345 2016,27 -97,391 -1677,583 -2016,-27z"/>
     </g>
     <g>
      <path class="fil8" d="M6747 6393c0,-115 0,-231 0,-346 87,-456 2001,-411 2045,0 -1,128 -2,255 -4,383 -37,521 -2034,483 -2041,-36zm-71 18c0,-131 0,-263 0,-394 93,-519 2139,-467 2186,0 -1,145 -3,290 -4,435 -40,592 -2174,550 -2182,-41z"/>
      <polygon class="fil8" points="7724,5098 7805,5098 7837,5552 7703,5553 "/>
     </g>
    </g>
   </g>
  </g>
 </g>
</svg>
