<?xml version="1.0" encoding="UTF-8"?>
<!DOCTYPE svg PUBLIC "-//W3C//DTD SVG 1.1//EN" "http://www.w3.org/Graphics/SVG/1.1/DTD/svg11.dtd">
<!-- Creator: CorelDRAW X5 -->
<svg xmlns="http://www.w3.org/2000/svg" xml:space="preserve" width="11.6929in" height="8.26772in" style="shape-rendering:geometricPrecision; text-rendering:geometricPrecision; image-rendering:optimizeQuality; fill-rule:evenodd; clip-rule:evenodd"
viewBox="0 0 11693 8268"
 xmlns:xlink="http://www.w3.org/1999/xlink">
 <defs>
  <style type="text/css">
   <![CDATA[
    .fil15 {fill:url(#id0)}
    .fil11 {fill:url(#id1)}
    .fil5 {fill:url(#id2)}
    .fil1 {fill:url(#id3)}
    .fil17 {fill:url(#id4)}
    .fil70 {fill:url(#id5)}
    .fil40 {fill:url(#id6)}
    .fil86 {fill:url(#id7)}
    .fil25 {fill:url(#id8)}
    .fil48 {fill:url(#id9)}
    .fil56 {fill:url(#id10)}
    .fil78 {fill:url(#id11)}
    .fil32 {fill:url(#id12)}
    .fil63 {fill:url(#id13)}
    .fil7 {fill:url(#id14)}
    .fil12 {fill:url(#id15)}
    .fil36 {fill:url(#id16)}
    .fil82 {fill:url(#id17)}
    .fil21 {fill:url(#id18)}
    .fil52 {fill:url(#id19)}
    .fil44 {fill:url(#id20)}
    .fil74 {fill:url(#id21)}
    .fil28 {fill:url(#id22)}
    .fil2 {fill:url(#id23)}
    .fil81 {fill:url(#id24)}
    .fil35 {fill:url(#id25)}
    .fil10 {fill:url(#id26)}
    .fil20 {fill:url(#id27)}
    .fil66 {fill:url(#id28)}
    .fil59 {fill:url(#id29)}
    .fil0 {fill:url(#id30)}
    .fil51 {fill:url(#id31)}
    .fil43 {fill:url(#id32)}
    .fil27 {fill:url(#id33)}
    .fil73 {fill:url(#id34)}
    .fil71 {fill:url(#id35)}
    .fil18 {fill:url(#id36)}
    .fil87 {fill:url(#id37)}
    .fil41 {fill:url(#id38)}
    .fil55 {fill:url(#id39)}
    .fil47 {fill:url(#id40)}
    .fil62 {fill:url(#id41)}
    .fil6 {fill:url(#id42)}
    .fil77 {fill:url(#id43)}
    .fil31 {fill:url(#id44)}
    .fil23 {fill:url(#id45)}
    .fil38 {fill:url(#id46)}
    .fil68 {fill:url(#id47)}
    .fil84 {fill:url(#id48)}
    .fil14 {fill:url(#id49)}
    .fil9 {fill:url(#id50)}
    .fil34 {fill:url(#id51)}
    .fil65 {fill:url(#id52)}
    .fil50 {fill:url(#id53)}
    .fil80 {fill:url(#id54)}
    .fil58 {fill:url(#id55)}
    .fil26 {fill:url(#id56)}
    .fil88 {fill:url(#id57)}
    .fil72 {fill:url(#id58)}
    .fil42 {fill:url(#id59)}
    .fil19 {fill:url(#id60)}
    .fil4 {fill:url(#id61)}
    .fil76 {fill:url(#id62)}
    .fil61 {fill:url(#id63)}
    .fil30 {fill:url(#id64)}
    .fil46 {fill:url(#id65)}
    .fil54 {fill:url(#id66)}
    .fil39 {fill:url(#id67)}
    .fil85 {fill:url(#id68)}
    .fil16 {fill:url(#id69)}
    .fil69 {fill:url(#id70)}
    .fil24 {fill:url(#id71)}
    .fil33 {fill:url(#id72)}
    .fil79 {fill:url(#id73)}
    .fil8 {fill:url(#id74)}
    .fil49 {fill:url(#id75)}
    .fil64 {fill:url(#id76)}
    .fil57 {fill:url(#id77)}
    .fil67 {fill:url(#id78)}
    .fil83 {fill:url(#id79)}
    .fil22 {fill:url(#id80)}
    .fil13 {fill:url(#id81)}
    .fil37 {fill:url(#id82)}
    .fil29 {fill:url(#id83)}
    .fil3 {fill:url(#id84)}
    .fil53 {fill:url(#id85)}
    .fil45 {fill:url(#id86)}
    .fil75 {fill:url(#id87)}
    .fil60 {fill:url(#id88)}
   ]]>
  </style>
  <linearGradient id="id0" gradientUnits="userSpaceOnUse" x1="6237.46" y1="1699.62" x2="6558.05" y2="1699.62">
   <stop offset="0" style="stop-color:#ADD9DF"/>
   <stop offset="1" style="stop-color:#FDFEFE"/>
  </linearGradient>
  <linearGradient id="id1" gradientUnits="userSpaceOnUse" xlink:href="#id0" x1="6243.04" y1="1621.8" x2="6463.34" y2="1621.8">
  </linearGradient>
  <linearGradient id="id2" gradientUnits="userSpaceOnUse" xlink:href="#id0" x1="5470.29" y1="6007.3" x2="5790.88" y2="6007.3">
  </linearGradient>
  <linearGradient id="id3" gradientUnits="userSpaceOnUse" xlink:href="#id0" x1="5565" y1="5929.48" x2="5785.3" y2="5929.48">
  </linearGradient>
  <linearGradient id="id4" gradientUnits="userSpaceOnUse" xlink:href="#id0" x1="6171.7" y1="1824.06" x2="6188.98" y2="1599.5">
  </linearGradient>
  <linearGradient id="id5" gradientUnits="userSpaceOnUse" xlink:href="#id0" x1="6356.94" y1="6618.52" x2="6375.96" y2="6371.28">
  </linearGradient>
  <linearGradient id="id6" gradientUnits="userSpaceOnUse" xlink:href="#id0" x1="5351.72" y1="2387.63" x2="5376.85" y2="2060.93">
  </linearGradient>
  <linearGradient id="id7" gradientUnits="userSpaceOnUse" xlink:href="#id0" x1="5857.11" y1="2018.08" x2="5869.05" y2="1862.87">
  </linearGradient>
  <linearGradient id="id8" gradientUnits="userSpaceOnUse" xlink:href="#id0" x1="5734.37" y1="5756.9" x2="5759.5" y2="5430.21">
  </linearGradient>
  <linearGradient id="id9" gradientUnits="userSpaceOnUse" xlink:href="#id0" x1="6157.87" y1="2761.01" x2="6183.96" y2="2421.74">
  </linearGradient>
  <linearGradient id="id10" gradientUnits="userSpaceOnUse" xlink:href="#id0" x1="6097.35" y1="3831.94" x2="6118.33" y2="3559.25">
  </linearGradient>
  <linearGradient id="id11" gradientUnits="userSpaceOnUse" xlink:href="#id0" x1="6159.29" y1="6325.76" x2="6171.23" y2="6170.55">
  </linearGradient>
  <linearGradient id="id12" gradientUnits="userSpaceOnUse" xlink:href="#id0" x1="6238.55" y1="5389.05" x2="6263.69" y2="5062.36">
  </linearGradient>
  <linearGradient id="id13" gradientUnits="userSpaceOnUse" xlink:href="#id0" x1="5667.96" y1="6507.04" x2="5686.98" y2="6259.8">
  </linearGradient>
  <linearGradient id="id14" gradientUnits="userSpaceOnUse" xlink:href="#id0" x1="5839.35" y1="6131.74" x2="5856.63" y2="5907.18">
  </linearGradient>
  <linearGradient id="id15" gradientUnits="userSpaceOnUse" xlink:href="#id0" x1="6253.86" y1="1665.83" x2="6289.31" y2="1467.33">
  </linearGradient>
  <linearGradient id="id16" gradientUnits="userSpaceOnUse" xlink:href="#id0" x1="5471.24" y1="2157.43" x2="5522.81" y2="1868.65">
  </linearGradient>
  <linearGradient id="id17" gradientUnits="userSpaceOnUse" xlink:href="#id0" x1="5913.89" y1="1908.71" x2="5938.39" y2="1771.52">
  </linearGradient>
  <linearGradient id="id18" gradientUnits="userSpaceOnUse" xlink:href="#id0" x1="5853.89" y1="5526.7" x2="5905.45" y2="5237.93">
  </linearGradient>
  <linearGradient id="id19" gradientUnits="userSpaceOnUse" xlink:href="#id0" x1="5975.53" y1="3639.79" x2="6018.57" y2="3398.74">
  </linearGradient>
  <linearGradient id="id20" gradientUnits="userSpaceOnUse" xlink:href="#id0" x1="6006.3" y1="2521.95" x2="6059.85" y2="2222.06">
  </linearGradient>
  <linearGradient id="id21" gradientUnits="userSpaceOnUse" xlink:href="#id0" x1="6089.95" y1="6216.39" x2="6114.45" y2="6079.2">
  </linearGradient>
  <linearGradient id="id22" gradientUnits="userSpaceOnUse" xlink:href="#id0" x1="6092.6" y1="5158.85" x2="6144.17" y2="4870.07">
  </linearGradient>
  <linearGradient id="id23" gradientUnits="userSpaceOnUse" xlink:href="#id0" x1="5739.03" y1="5973.51" x2="5774.48" y2="5775.01">
  </linearGradient>
  <linearGradient id="id24" gradientUnits="userSpaceOnUse" xlink:href="#id0" x1="5723.8" y1="1993.8" x2="5768.51" y2="1827.71">
  </linearGradient>
  <linearGradient id="id25" gradientUnits="userSpaceOnUse" xlink:href="#id0" x1="5071.13" y1="2336.5" x2="5165.25" y2="1986.93">
  </linearGradient>
  <linearGradient id="id26" gradientUnits="userSpaceOnUse" xlink:href="#id0" x1="5978.83" y1="1788.92" x2="6043.53" y2="1548.63">
  </linearGradient>
  <linearGradient id="id27" gradientUnits="userSpaceOnUse" xlink:href="#id0" x1="5453.78" y1="5705.78" x2="5547.89" y2="5356.21">
  </linearGradient>
  <linearGradient id="id28" gradientUnits="userSpaceOnUse" xlink:href="#id0" x1="6144.59" y1="6579.83" x2="6215.82" y2="6315.27">
  </linearGradient>
  <linearGradient id="id29" gradientUnits="userSpaceOnUse" xlink:href="#id0" x1="5828.11" y1="6468.35" x2="5899.33" y2="6203.8">
  </linearGradient>
  <linearGradient id="id30" gradientUnits="userSpaceOnUse" xlink:href="#id0" x1="5984.81" y1="6096.6" x2="6049.5" y2="5856.31">
  </linearGradient>
  <linearGradient id="id31" gradientUnits="userSpaceOnUse" xlink:href="#id0" x1="6273.98" y1="3789.26" x2="6352.54" y2="3497.48">
  </linearGradient>
  <linearGradient id="id32" gradientUnits="userSpaceOnUse" xlink:href="#id0" x1="6377.62" y1="2707.92" x2="6475.36" y2="2344.89">
  </linearGradient>
  <linearGradient id="id33" gradientUnits="userSpaceOnUse" xlink:href="#id0" x1="6450.16" y1="5337.93" x2="6544.28" y2="4988.35">
  </linearGradient>
  <linearGradient id="id34" gradientUnits="userSpaceOnUse" xlink:href="#id0" x1="6259.83" y1="6301.48" x2="6304.54" y2="6135.39">
  </linearGradient>
  <linearGradient id="id35" gradientUnits="userSpaceOnUse" xlink:href="#id0" x1="6165.27" y1="6629.04" x2="6286.31" y2="6427.31">
  </linearGradient>
  <linearGradient id="id36" gradientUnits="userSpaceOnUse" xlink:href="#id0" x1="5997.62" y1="1833.62" x2="6107.55" y2="1650.39">
  </linearGradient>
  <linearGradient id="id37" gradientUnits="userSpaceOnUse" xlink:href="#id0" x1="5736.78" y1="2024.69" x2="5812.76" y2="1898.05">
  </linearGradient>
  <linearGradient id="id38" gradientUnits="userSpaceOnUse" xlink:href="#id0" x1="5098.45" y1="2401.52" x2="5258.38" y2="2134.97">
  </linearGradient>
  <linearGradient id="id39" gradientUnits="userSpaceOnUse" xlink:href="#id0" x1="6173.76" y1="3790.15" x2="5987.69" y2="3457.87">
  </linearGradient>
  <linearGradient id="id40" gradientUnits="userSpaceOnUse" xlink:href="#id0" x1="6252.93" y1="2709.03" x2="6021.43" y2="2295.62">
  </linearGradient>
  <linearGradient id="id41" gradientUnits="userSpaceOnUse" xlink:href="#id0" x1="5737.24" y1="6469.16" x2="5568.53" y2="6167.89">
  </linearGradient>
  <linearGradient id="id42" gradientUnits="userSpaceOnUse" xlink:href="#id0" x1="5902.28" y1="6097.34" x2="5749.05" y2="5823.7">
  </linearGradient>
  <linearGradient id="id43" gradientUnits="userSpaceOnUse" xlink:href="#id0" x1="6202.78" y1="6301.98" x2="6096.87" y2="6112.85">
  </linearGradient>
  <linearGradient id="id44" gradientUnits="userSpaceOnUse" xlink:href="#id0" x1="6330.09" y1="5339" x2="6107.17" y2="4940.91">
  </linearGradient>
  <linearGradient id="id45" gradientUnits="userSpaceOnUse" xlink:href="#id0" x1="5557.89" y1="5589.5" x2="5672.16" y2="5303.83">
  </linearGradient>
  <linearGradient id="id46" gradientUnits="userSpaceOnUse" xlink:href="#id0" x1="5175.25" y1="2220.22" x2="5289.52" y2="1934.55">
  </linearGradient>
  <linearGradient id="id47" gradientUnits="userSpaceOnUse" xlink:href="#id0" x1="6223.39" y1="6491.82" x2="6309.86" y2="6275.63">
  </linearGradient>
  <linearGradient id="id48" gradientUnits="userSpaceOnUse" xlink:href="#id0" x1="5773.26" y1="1938.55" x2="5827.55" y2="1802.83">
  </linearGradient>
  <linearGradient id="id49" gradientUnits="userSpaceOnUse" xlink:href="#id0" x1="6050.4" y1="1708.99" x2="6128.94" y2="1512.63">
  </linearGradient>
  <linearGradient id="id50" gradientUnits="userSpaceOnUse" xlink:href="#id0" x1="5780.22" y1="6130.89" x2="5717.07" y2="5954.07">
  </linearGradient>
  <linearGradient id="id51" gradientUnits="userSpaceOnUse" xlink:href="#id0" x1="6152.52" y1="5387.8" x2="6060.65" y2="5130.57">
  </linearGradient>
  <linearGradient id="id52" gradientUnits="userSpaceOnUse" xlink:href="#id0" x1="5602.85" y1="6506.1" x2="5533.33" y2="6311.43">
  </linearGradient>
  <linearGradient id="id53" gradientUnits="userSpaceOnUse" xlink:href="#id0" x1="6068.53" y1="2759.71" x2="5973.12" y2="2492.58">
  </linearGradient>
  <linearGradient id="id54" gradientUnits="userSpaceOnUse" xlink:href="#id0" x1="6118.42" y1="6325.17" x2="6074.77" y2="6202.96">
  </linearGradient>
  <linearGradient id="id55" gradientUnits="userSpaceOnUse" xlink:href="#id0" x1="6025.54" y1="3830.89" x2="5948.86" y2="3616.19">
  </linearGradient>
  <linearGradient id="id56" gradientUnits="userSpaceOnUse" xlink:href="#id0" x1="5937.4" y1="5755.65" x2="5845.53" y2="5498.43">
  </linearGradient>
  <linearGradient id="id57" gradientUnits="userSpaceOnUse" xlink:href="#id0" x1="5953.57" y1="2017.49" x2="5909.92" y2="1895.28">
  </linearGradient>
  <linearGradient id="id58" gradientUnits="userSpaceOnUse" xlink:href="#id0" x1="6510.6" y1="6617.57" x2="6441.07" y2="6422.9">
  </linearGradient>
  <linearGradient id="id59" gradientUnits="userSpaceOnUse" xlink:href="#id0" x1="5554.76" y1="2386.38" x2="5462.88" y2="2129.15">
  </linearGradient>
  <linearGradient id="id60" gradientUnits="userSpaceOnUse" xlink:href="#id0" x1="6311.26" y1="1823.2" x2="6248.11" y2="1646.39">
  </linearGradient>
  <linearGradient id="id61" gradientUnits="userSpaceOnUse" xlink:href="#id0" x1="5899.39" y1="6016.67" x2="5977.94" y2="5820.31">
  </linearGradient>
  <linearGradient id="id62" gradientUnits="userSpaceOnUse" xlink:href="#id0" x1="6200.79" y1="6246.23" x2="6255.07" y2="6110.51">
  </linearGradient>
  <linearGradient id="id63" gradientUnits="userSpaceOnUse" xlink:href="#id0" x1="5734.06" y1="6380.35" x2="5820.54" y2="6164.15">
  </linearGradient>
  <linearGradient id="id64" gradientUnits="userSpaceOnUse" xlink:href="#id0" x1="6325.89" y1="5221.64" x2="6440.16" y2="4935.97">
  </linearGradient>
  <linearGradient id="id65" gradientUnits="userSpaceOnUse" xlink:href="#id0" x1="6248.57" y1="2587.16" x2="6367.24" y2="2290.49">
  </linearGradient>
  <linearGradient id="id66" gradientUnits="userSpaceOnUse" xlink:href="#id0" x1="6170.26" y1="3692.2" x2="6265.64" y2="3453.75">
  </linearGradient>
  <linearGradient id="id67" gradientUnits="userSpaceOnUse" xlink:href="#id0" x1="5508.24" y1="2337.57" x2="5285.31" y2="1939.49">
  </linearGradient>
  <linearGradient id="id68" gradientUnits="userSpaceOnUse" xlink:href="#id0" x1="5931.47" y1="1994.3" x2="5825.56" y2="1805.17">
  </linearGradient>
  <linearGradient id="id69" gradientUnits="userSpaceOnUse" xlink:href="#id0" x1="6279.29" y1="1789.66" x2="6126.06" y2="1516.02">
  </linearGradient>
  <linearGradient id="id70" gradientUnits="userSpaceOnUse" xlink:href="#id0" x1="6475.39" y1="6580.63" x2="6306.69" y2="6279.37">
  </linearGradient>
  <linearGradient id="id71" gradientUnits="userSpaceOnUse" xlink:href="#id0" x1="5890.89" y1="5706.85" x2="5667.96" y2="5308.77">
  </linearGradient>
  <linearGradient id="id72" gradientUnits="userSpaceOnUse" xlink:href="#id0" x1="6357.02" y1="5402.95" x2="6516.95" y2="5136.39">
  </linearGradient>
  <linearGradient id="id73" gradientUnits="userSpaceOnUse" xlink:href="#id0" x1="6215.57" y1="6332.37" x2="6291.56" y2="6205.73">
  </linearGradient>
  <linearGradient id="id74" gradientUnits="userSpaceOnUse" xlink:href="#id0" x1="5920.79" y1="6141.3" x2="6030.72" y2="5958.07">
  </linearGradient>
  <linearGradient id="id75" gradientUnits="userSpaceOnUse" xlink:href="#id0" x1="6280.9" y1="2775.44" x2="6446.98" y2="2498.63">
  </linearGradient>
  <linearGradient id="id76" gradientUnits="userSpaceOnUse" xlink:href="#id0" x1="5757.62" y1="6517.56" x2="5878.65" y2="6315.83">
  </linearGradient>
  <linearGradient id="id77" gradientUnits="userSpaceOnUse" xlink:href="#id0" x1="6196.24" y1="3843.54" x2="6329.74" y2="3621.05">
  </linearGradient>
  <linearGradient id="id78" gradientUnits="userSpaceOnUse" xlink:href="#id0" x1="6284.72" y1="6436.84" x2="6378.24" y2="6213.84">
  </linearGradient>
  <linearGradient id="id79" gradientUnits="userSpaceOnUse" xlink:href="#id0" x1="5811.77" y1="1904.03" x2="5870.48" y2="1764.04">
  </linearGradient>
  <linearGradient id="id80" gradientUnits="userSpaceOnUse" xlink:href="#id0" x1="5638.94" y1="5516.85" x2="5762.5" y2="5222.19">
  </linearGradient>
  <linearGradient id="id81" gradientUnits="userSpaceOnUse" xlink:href="#id0" x1="6106.11" y1="1659.06" x2="6191.05" y2="1456.52">
  </linearGradient>
  <linearGradient id="id82" gradientUnits="userSpaceOnUse" xlink:href="#id0" x1="5256.3" y1="2147.57" x2="5379.86" y2="1852.91">
  </linearGradient>
  <linearGradient id="id83" gradientUnits="userSpaceOnUse" xlink:href="#id0" x1="6235.55" y1="5149" x2="6359.11" y2="4854.33">
  </linearGradient>
  <linearGradient id="id84" gradientUnits="userSpaceOnUse" xlink:href="#id0" x1="5837.29" y1="5966.74" x2="5922.23" y2="5764.2">
  </linearGradient>
  <linearGradient id="id85" gradientUnits="userSpaceOnUse" xlink:href="#id0" x1="6094.85" y1="3631.56" x2="6197.98" y2="3385.61">
  </linearGradient>
  <linearGradient id="id86" gradientUnits="userSpaceOnUse" xlink:href="#id0" x1="6154.75" y1="2511.72" x2="6283.07" y2="2205.71">
  </linearGradient>
  <linearGradient id="id87" gradientUnits="userSpaceOnUse" xlink:href="#id0" x1="6157.86" y1="6211.71" x2="6216.57" y2="6071.72">
  </linearGradient>
  <linearGradient id="id88" gradientUnits="userSpaceOnUse" xlink:href="#id0" x1="5665.69" y1="6325.37" x2="5759.2" y2="6102.37">
  </linearGradient>
 </defs>
 <g id="Layer_x0020_1">
  <metadata id="CorelCorpID_0Corel-Layer"/>
  <g id="_212518776">
   <g>
    <ellipse class="fil0" cx="6017" cy="5976" rx="143" ry="115"/>
    <ellipse class="fil1" cx="5675" cy="5929" rx="110" ry="93"/>
    <ellipse class="fil2" cx="5757" cy="5874" rx="102" ry="98"/>
    <ellipse class="fil3" cx="5880" cy="5865" rx="109" ry="107"/>
    <ellipse class="fil4" cx="5939" cy="5918" rx="109" ry="95"/>
    <ellipse class="fil5" cx="5631" cy="6007" rx="160" ry="91"/>
    <ellipse class="fil6" cx="5826" cy="5961" rx="184" ry="116"/>
    <ellipse class="fil7" cx="5848" cy="6019" rx="115" ry="111"/>
    <ellipse class="fil8" cx="5976" cy="6050" rx="118" ry="81"/>
    <ellipse class="fil9" cx="5749" cy="6042" rx="113" ry="81"/>
   </g>
   <g>
    <ellipse class="fil10" cx="6011" cy="1669" rx="143" ry="115"/>
    <ellipse class="fil11" cx="6353" cy="1622" rx="110" ry="93"/>
    <ellipse class="fil12" cx="6272" cy="1567" rx="102" ry="98"/>
    <ellipse class="fil13" cx="6149" cy="1558" rx="109" ry="107"/>
    <ellipse class="fil14" cx="6090" cy="1611" rx="109" ry="95"/>
    <ellipse class="fil15" cx="6398" cy="1700" rx="160" ry="91"/>
    <ellipse class="fil16" cx="6203" cy="1653" rx="184" ry="116"/>
    <ellipse class="fil17" cx="6180" cy="1712" rx="115" ry="111"/>
    <ellipse class="fil18" cx="6053" cy="1742" rx="118" ry="81"/>
    <ellipse class="fil19" cx="6280" cy="1735" rx="113" ry="81"/>
   </g>
   <g>
    <ellipse class="fil10" cx="5369" cy="4523" rx="143" ry="115"/>
    <ellipse class="fil11" cx="5711" cy="4476" rx="110" ry="93"/>
    <ellipse class="fil12" cx="5630" cy="4421" rx="102" ry="98"/>
    <ellipse class="fil13" cx="5507" cy="4412" rx="109" ry="107"/>
    <ellipse class="fil14" cx="5448" cy="4465" rx="109" ry="95"/>
    <ellipse class="fil15" cx="5756" cy="4554" rx="160" ry="91"/>
    <ellipse class="fil16" cx="5561" cy="4507" rx="184" ry="116"/>
    <ellipse class="fil17" cx="5539" cy="4566" rx="115" ry="111"/>
    <ellipse class="fil18" cx="5411" cy="4596" rx="118" ry="81"/>
    <ellipse class="fil19" cx="5638" cy="4589" rx="113" ry="81"/>
   </g>
   <g>
    <ellipse class="fil20" cx="5501" cy="5531" rx="208" ry="167"/>
    <ellipse class="fil11" cx="5998" cy="5463" rx="160" ry="135"/>
    <ellipse class="fil21" cx="5880" cy="5382" rx="148" ry="143"/>
    <ellipse class="fil22" cx="5701" cy="5370" rx="158" ry="156"/>
    <ellipse class="fil23" cx="5615" cy="5447" rx="158" ry="139"/>
    <ellipse class="fil15" cx="6063" cy="5576" rx="233" ry="132"/>
    <ellipse class="fil24" cx="5779" cy="5508" rx="268" ry="169"/>
    <ellipse class="fil25" cx="5747" cy="5594" rx="168" ry="162"/>
    <ellipse class="fil18" cx="5561" cy="5638" rx="172" ry="118"/>
    <ellipse class="fil26" cx="5891" cy="5627" rx="165" ry="118"/>
   </g>
   <g>
    <ellipse class="fil27" cx="6497" cy="5163" rx="208" ry="167"/>
    <ellipse class="fil1" cx="6000" cy="5095" rx="160" ry="135"/>
    <ellipse class="fil28" cx="6118" cy="5014" rx="148" ry="143"/>
    <ellipse class="fil29" cx="6297" cy="5002" rx="158" ry="156"/>
    <ellipse class="fil30" cx="6383" cy="5079" rx="158" ry="139"/>
    <ellipse class="fil5" cx="5935" cy="5208" rx="233" ry="132"/>
    <ellipse class="fil31" cx="6219" cy="5140" rx="268" ry="169"/>
    <ellipse class="fil32" cx="6251" cy="5226" rx="168" ry="162"/>
    <ellipse class="fil33" cx="6437" cy="5270" rx="172" ry="118"/>
    <ellipse class="fil34" cx="6107" cy="5259" rx="165" ry="118"/>
   </g>
   <g>
    <ellipse class="fil35" cx="5118" cy="2162" rx="208" ry="167"/>
    <ellipse class="fil11" cx="5616" cy="2093" rx="160" ry="135"/>
    <ellipse class="fil36" cx="5497" cy="2013" rx="148" ry="143"/>
    <ellipse class="fil37" cx="5318" cy="2000" rx="158" ry="156"/>
    <ellipse class="fil38" cx="5232" cy="2077" rx="158" ry="139"/>
    <ellipse class="fil15" cx="5681" cy="2207" rx="233" ry="132"/>
    <ellipse class="fil39" cx="5397" cy="2139" rx="268" ry="169"/>
    <ellipse class="fil40" cx="5364" cy="2224" rx="168" ry="162"/>
    <ellipse class="fil41" cx="5178" cy="2268" rx="172" ry="118"/>
    <ellipse class="fil42" cx="5509" cy="2258" rx="165" ry="118"/>
   </g>
   <g>
    <ellipse class="fil20" cx="5602" cy="6834" rx="216" ry="174"/>
    <ellipse class="fil11" cx="6119" cy="6763" rx="166" ry="140"/>
    <ellipse class="fil21" cx="5995" cy="6680" rx="154" ry="148"/>
    <ellipse class="fil22" cx="5809" cy="6666" rx="164" ry="162"/>
    <ellipse class="fil23" cx="5720" cy="6747" rx="164" ry="144"/>
    <ellipse class="fil15" cx="6186" cy="6881" rx="242" ry="137"/>
    <ellipse class="fil24" cx="5891" cy="6810" rx="278" ry="175"/>
    <ellipse class="fil25" cx="5857" cy="6899" rx="174" ry="168"/>
    <ellipse class="fil18" cx="5664" cy="6945" rx="178" ry="122"/>
    <ellipse class="fil26" cx="6008" cy="6934" rx="171" ry="123"/>
   </g>
   <g>
    <ellipse class="fil43" cx="6426" cy="2526" rx="216" ry="174"/>
    <ellipse class="fil1" cx="5910" cy="2455" rx="166" ry="140"/>
    <ellipse class="fil44" cx="6033" cy="2372" rx="154" ry="148"/>
    <ellipse class="fil45" cx="6219" cy="2359" rx="164" ry="162"/>
    <ellipse class="fil46" cx="6308" cy="2439" rx="164" ry="144"/>
    <ellipse class="fil5" cx="5842" cy="2573" rx="242" ry="137"/>
    <ellipse class="fil47" cx="6137" cy="2502" rx="278" ry="175"/>
    <ellipse class="fil48" cx="6171" cy="2591" rx="174" ry="168"/>
    <ellipse class="fil49" cx="6364" cy="2637" rx="178" ry="122"/>
    <ellipse class="fil50" cx="6021" cy="2626" rx="171" ry="123"/>
   </g>
   <g>
    <ellipse class="fil20" cx="5844" cy="4532" rx="216" ry="174"/>
    <ellipse class="fil11" cx="6361" cy="4461" rx="166" ry="140"/>
    <ellipse class="fil21" cx="6238" cy="4377" rx="154" ry="148"/>
    <ellipse class="fil22" cx="6052" cy="4364" rx="164" ry="162"/>
    <ellipse class="fil23" cx="5963" cy="4444" rx="164" ry="144"/>
    <ellipse class="fil15" cx="6428" cy="4578" rx="242" ry="137"/>
    <ellipse class="fil24" cx="6134" cy="4507" rx="278" ry="175"/>
    <ellipse class="fil25" cx="6100" cy="4597" rx="174" ry="168"/>
    <ellipse class="fil18" cx="5907" cy="4642" rx="178" ry="122"/>
    <ellipse class="fil26" cx="6250" cy="4631" rx="171" ry="123"/>
   </g>
   <g>
    <ellipse class="fil43" cx="5771" cy="1530" rx="216" ry="174"/>
    <ellipse class="fil1" cx="5254" cy="1459" rx="166" ry="140"/>
    <ellipse class="fil44" cx="5378" cy="1376" rx="154" ry="148"/>
    <ellipse class="fil45" cx="5564" cy="1362" rx="164" ry="162"/>
    <ellipse class="fil46" cx="5653" cy="1443" rx="164" ry="144"/>
    <ellipse class="fil5" cx="5187" cy="1577" rx="242" ry="137"/>
    <ellipse class="fil47" cx="5482" cy="1506" rx="278" ry="175"/>
    <ellipse class="fil48" cx="5516" cy="1595" rx="174" ry="168"/>
    <ellipse class="fil49" cx="5709" cy="1641" rx="178" ry="122"/>
    <ellipse class="fil50" cx="5366" cy="1630" rx="171" ry="123"/>
   </g>
   <g>
    <ellipse class="fil20" cx="5181" cy="4009" rx="240" ry="193"/>
    <ellipse class="fil11" cx="5756" cy="3930" rx="185" ry="156"/>
    <ellipse class="fil21" cx="5619" cy="3837" rx="171" ry="165"/>
    <ellipse class="fil22" cx="5412" cy="3822" rx="182" ry="180"/>
    <ellipse class="fil23" cx="5313" cy="3912" rx="182" ry="160"/>
    <ellipse class="fil15" cx="5831" cy="4061" rx="269" ry="152"/>
    <ellipse class="fil24" cx="5503" cy="3982" rx="309" ry="195"/>
    <ellipse class="fil25" cx="5466" cy="4081" rx="194" ry="187"/>
    <ellipse class="fil18" cx="5251" cy="4132" rx="199" ry="136"/>
    <ellipse class="fil26" cx="5633" cy="4120" rx="190" ry="136"/>
   </g>
   <g>
    <ellipse class="fil51" cx="6313" cy="3643" rx="173" ry="140"/>
    <ellipse class="fil1" cx="5898" cy="3586" rx="134" ry="113"/>
    <ellipse class="fil52" cx="5997" cy="3519" rx="123" ry="119"/>
    <ellipse class="fil53" cx="6146" cy="3509" rx="132" ry="130"/>
    <ellipse class="fil54" cx="6218" cy="3573" rx="132" ry="116"/>
    <ellipse class="fil5" cx="5844" cy="3681" rx="195" ry="110"/>
    <ellipse class="fil55" cx="6081" cy="3624" rx="224" ry="141"/>
    <ellipse class="fil56" cx="6108" cy="3696" rx="140" ry="135"/>
    <ellipse class="fil57" cx="6263" cy="3732" rx="143" ry="98"/>
    <ellipse class="fil58" cx="5987" cy="3724" rx="137" ry="99"/>
   </g>
   <g>
    <ellipse class="fil51" cx="5624" cy="3381" rx="128" ry="103"/>
    <ellipse class="fil1" cx="5317" cy="3339" rx="99" ry="83"/>
    <ellipse class="fil52" cx="5390" cy="3290" rx="91" ry="88"/>
    <ellipse class="fil53" cx="5501" cy="3282" rx="98" ry="96"/>
    <ellipse class="fil54" cx="5554" cy="3329" rx="98" ry="86"/>
    <ellipse class="fil5" cx="5276" cy="3409" rx="144" ry="82"/>
    <ellipse class="fil55" cx="5452" cy="3367" rx="166" ry="104"/>
    <ellipse class="fil56" cx="5472" cy="3420" rx="104" ry="100"/>
    <ellipse class="fil57" cx="5587" cy="3447" rx="106" ry="73"/>
    <ellipse class="fil58" cx="5383" cy="3441" rx="102" ry="73"/>
   </g>
   <g>
    <ellipse class="fil20" cx="5482" cy="2952" rx="216" ry="174"/>
    <ellipse class="fil11" cx="5999" cy="2881" rx="166" ry="140"/>
    <ellipse class="fil21" cx="5875" cy="2798" rx="154" ry="148"/>
    <ellipse class="fil22" cx="5689" cy="2784" rx="164" ry="162"/>
    <ellipse class="fil23" cx="5600" cy="2864" rx="164" ry="144"/>
    <ellipse class="fil15" cx="6066" cy="2999" rx="242" ry="137"/>
    <ellipse class="fil24" cx="5771" cy="2928" rx="278" ry="175"/>
    <ellipse class="fil25" cx="5737" cy="3017" rx="174" ry="168"/>
    <ellipse class="fil18" cx="5544" cy="3063" rx="178" ry="122"/>
    <ellipse class="fil26" cx="5888" cy="3052" rx="171" ry="123"/>
   </g>
   <g>
    <ellipse class="fil59" cx="5864" cy="6336" rx="157" ry="127"/>
    <ellipse class="fil1" cx="5487" cy="6284" rx="121" ry="102"/>
    <ellipse class="fil52" cx="5577" cy="6224" rx="112" ry="108"/>
    <ellipse class="fil60" cx="5712" cy="6214" rx="119" ry="118"/>
    <ellipse class="fil61" cx="5777" cy="6272" rx="119" ry="105"/>
    <ellipse class="fil5" cx="5438" cy="6370" rx="176" ry="100"/>
    <ellipse class="fil62" cx="5653" cy="6319" rx="203" ry="128"/>
    <ellipse class="fil63" cx="5677" cy="6383" rx="127" ry="123"/>
    <ellipse class="fil64" cx="5818" cy="6417" rx="130" ry="89"/>
    <ellipse class="fil65" cx="5568" cy="6409" rx="125" ry="89"/>
   </g>
   <g>
    <ellipse class="fil66" cx="6180" cy="6448" rx="157" ry="127"/>
    <ellipse class="fil11" cx="6557" cy="6396" rx="121" ry="102"/>
    <ellipse class="fil21" cx="6467" cy="6335" rx="112" ry="108"/>
    <ellipse class="fil67" cx="6331" cy="6325" rx="119" ry="118"/>
    <ellipse class="fil68" cx="6267" cy="6384" rx="119" ry="105"/>
    <ellipse class="fil15" cx="6606" cy="6482" rx="176" ry="100"/>
    <ellipse class="fil69" cx="6391" cy="6430" rx="203" ry="128"/>
    <ellipse class="fil70" cx="6366" cy="6495" rx="127" ry="123"/>
    <ellipse class="fil71" cx="6226" cy="6528" rx="130" ry="89"/>
    <ellipse class="fil72" cx="6476" cy="6520" rx="125" ry="89"/>
   </g>
   <g>
    <ellipse class="fil66" cx="6165" cy="2028" rx="157" ry="127"/>
    <ellipse class="fil11" cx="6541" cy="1977" rx="121" ry="102"/>
    <ellipse class="fil21" cx="6451" cy="1916" rx="112" ry="108"/>
    <ellipse class="fil67" cx="6316" cy="1906" rx="119" ry="118"/>
    <ellipse class="fil68" cx="6251" cy="1965" rx="119" ry="105"/>
    <ellipse class="fil15" cx="6590" cy="2062" rx="176" ry="100"/>
    <ellipse class="fil69" cx="6375" cy="2011" rx="203" ry="128"/>
    <ellipse class="fil70" cx="6351" cy="2076" rx="127" ry="123"/>
    <ellipse class="fil71" cx="6210" cy="2109" rx="130" ry="89"/>
    <ellipse class="fil72" cx="6460" cy="2101" rx="125" ry="89"/>
   </g>
   <g>
    <ellipse class="fil66" cx="5523" cy="4883" rx="157" ry="127"/>
    <ellipse class="fil11" cx="5899" cy="4831" rx="121" ry="102"/>
    <ellipse class="fil21" cx="5810" cy="4770" rx="112" ry="108"/>
    <ellipse class="fil67" cx="5674" cy="4761" rx="119" ry="118"/>
    <ellipse class="fil68" cx="5609" cy="4819" rx="119" ry="105"/>
    <ellipse class="fil15" cx="5948" cy="4917" rx="176" ry="100"/>
    <ellipse class="fil69" cx="5734" cy="4865" rx="203" ry="128"/>
    <ellipse class="fil70" cx="5709" cy="4930" rx="127" ry="123"/>
    <ellipse class="fil71" cx="5568" cy="4963" rx="130" ry="89"/>
    <ellipse class="fil72" cx="5818" cy="4955" rx="125" ry="89"/>
   </g>
   <g>
    <ellipse class="fil73" cx="6282" cy="6218" rx="99" ry="79"/>
    <ellipse class="fil1" cx="6046" cy="6186" rx="76" ry="64"/>
    <ellipse class="fil74" cx="6102" cy="6148" rx="70" ry="68"/>
    <ellipse class="fil75" cx="6187" cy="6142" rx="75" ry="74"/>
    <ellipse class="fil76" cx="6228" cy="6178" rx="75" ry="66"/>
    <ellipse class="fil5" cx="6015" cy="6240" rx="111" ry="63"/>
    <ellipse class="fil77" cx="6150" cy="6207" rx="127" ry="80"/>
    <ellipse class="fil78" cx="6165" cy="6248" rx="80" ry="77"/>
    <ellipse class="fil79" cx="6254" cy="6269" rx="82" ry="56"/>
    <ellipse class="fil80" cx="6097" cy="6264" rx="78" ry="56"/>
   </g>
   <g>
    <ellipse class="fil81" cx="5746" cy="1911" rx="99" ry="79"/>
    <ellipse class="fil11" cx="5983" cy="1878" rx="76" ry="64"/>
    <ellipse class="fil82" cx="5926" cy="1840" rx="70" ry="68"/>
    <ellipse class="fil83" cx="5841" cy="1834" rx="75" ry="74"/>
    <ellipse class="fil84" cx="5800" cy="1871" rx="75" ry="66"/>
    <ellipse class="fil15" cx="6013" cy="1932" rx="111" ry="63"/>
    <ellipse class="fil85" cx="5879" cy="1900" rx="127" ry="80"/>
    <ellipse class="fil86" cx="5863" cy="1940" rx="80" ry="77"/>
    <ellipse class="fil87" cx="5775" cy="1961" rx="82" ry="56"/>
    <ellipse class="fil88" cx="5932" cy="1956" rx="78" ry="56"/>
   </g>
   <g>
    <ellipse class="fil81" cx="5104" cy="4765" rx="99" ry="79"/>
    <ellipse class="fil11" cx="5341" cy="4733" rx="76" ry="64"/>
    <ellipse class="fil82" cx="5284" cy="4694" rx="70" ry="68"/>
    <ellipse class="fil83" cx="5199" cy="4688" rx="75" ry="74"/>
    <ellipse class="fil84" cx="5159" cy="4725" rx="75" ry="66"/>
    <ellipse class="fil15" cx="5372" cy="4786" rx="111" ry="63"/>
    <ellipse class="fil85" cx="5237" cy="4754" rx="127" ry="80"/>
    <ellipse class="fil86" cx="5221" cy="4795" rx="80" ry="77"/>
    <ellipse class="fil87" cx="5133" cy="4816" rx="82" ry="56"/>
    <ellipse class="fil88" cx="5290" cy="4811" rx="78" ry="56"/>
   </g>
  </g>
 </g>
</svg>
