<?xml version="1.0" encoding="UTF-8"?>
<!DOCTYPE svg PUBLIC "-//W3C//DTD SVG 1.1//EN" "http://www.w3.org/Graphics/SVG/1.1/DTD/svg11.dtd">
<!-- Creator: CorelDRAW X5 -->
<svg xmlns="http://www.w3.org/2000/svg" xml:space="preserve" width="11.6929in" height="8.26772in" style="shape-rendering:geometricPrecision; text-rendering:geometricPrecision; image-rendering:optimizeQuality; fill-rule:evenodd; clip-rule:evenodd"
viewBox="0 0 11693 8268"
 xmlns:xlink="http://www.w3.org/1999/xlink">
 <defs>
  <style type="text/css">
   <![CDATA[
    .fil3 {fill:#000066}
    .fil2 {fill:#1A1A1A}
    .fil1 {fill:#333300}
    .fil5 {fill:#336699}
    .fil4 {fill:#9999FF}
    .fil0 {fill:#FF6666}
   ]]>
  </style>
 </defs>
 <g id="Layer_x0020_1">
  <metadata id="CorelCorpID_0Corel-Layer"/>
  <g id="_215836128">
   <path class="fil0" d="M7699 5086c-1230,4 -2460,7 -3689,11 -264,273 -548,994 139,1059 180,17 322,-74 394,-240 -16,567 -110,1233 556,1241 460,5 526,-270 590,-539 114,0 228,0 342,0 81,246 95,514 556,548 580,42 739,-653 608,-1172 147,151 263,174 368,163 700,-75 418,-727 136,-1070z"/>
   <g>
    <g>
     <path class="fil1" d="M5148 5668c105,0 190,85 190,190 0,105 -85,190 -190,190 -105,0 -190,-85 -190,-190 0,-105 85,-190 190,-190zm0 -94c157,0 285,127 285,285 0,157 -127,285 -285,285 -157,0 -285,-127 -285,-285 0,-157 127,-285 285,-285z"/>
     <circle class="fil1" cx="5148" cy="5858" r="127"/>
    </g>
    <g>
     <path class="fil1" d="M6807 5542l-496 63 0 98 267 79 227 -144 2 -97zm0 0l38 -5c3,199 5,398 8,597 -1,21 -47,67 -75,70 -150,16 -301,33 -451,49 -33,3 -60,-32 -61,-53l4 -590 42 -5m0 0l496 -63m-572 21l650 -83c3,225 6,451 9,676 -1,24 -53,76 -85,79 -170,19 -339,37 -509,56 -37,3 -67,-36 -68,-60l4 -667z"/>
     <polygon class="fil1" points="6311,5735 6313,6221 6801,6150 6801,5684 6578,5833 "/>
    </g>
    <path class="fil1" d="M5837 5661l73 0 0 957 -73 0 0 -957zm-36 0l145 0 0 957 -145 0 0 -957z"/>
    <path class="fil1" d="M7694 5046c196,226 307,450 249,500 -58,50 -264,-92 -459,-318 100,-97 126,-107 210,-182z"/>
    <path class="fil1" d="M4043 5042c-196,226 -307,450 -249,500 58,50 264,-92 459,-318 -100,-97 -126,-107 -210,-182z"/>
    <path class="fil1" d="M4511 6279c-15,95 -14,159 11,208 409,304 749,343 1130,327 34,-20 61,-55 56,-150 -418,-34 -802,-95 -1196,-385z"/>
    <ellipse class="fil1" cx="7195" cy="6368" rx="56" ry="263"/>
   </g>
   <path class="fil2" d="M5803 5589l147 0c11,110 21,219 32,329 1,15 -6,22 -21,21 -63,0 -125,0 -188,0 -14,-1 -19,-9 -17,-22l46 -327zm31 188l79 0c6,37 12,73 17,110 1,5 -3,7 -11,7 -34,0 -68,0 -101,0 -8,0 -10,-3 -9,-7l25 -109z"/>
   <g>
    <path class="fil3" d="M3616 3030c100,-891 1052,-1591 2213,-1591 459,0 886,109 1241,298l0 -357c-56,-21 -95,-73 -95,-135 0,-79 64,-144 144,-144 79,0 144,64 144,144 0,40 -16,76 -42,102 -14,14 -31,25 -50,33l0 414c467,277 789,696 864,1176 -1519,-717 -2992,-686 -4418,60z"/>
    <path class="fil3" d="M3856 4851c433,383 3354,451 3900,113 -191,774 -3387,1116 -3900,-113z"/>
   </g>
   <g>
    <path class="fil4" d="M4934 2344c-594,92 -1116,251 -1322,685 713,-713 3398,-730 4418,-60 -62,-173 -274,-431 -1299,-624 -73,-339 -353,-1319 -809,-1070 -59,-1 -117,-1 -176,-2 -547,-206 -715,784 -813,1070z"/>
    <path class="fil4" d="M3623 4558c763,737 3453,757 4418,60 -212,857 -3676,1277 -4418,-60z"/>
   </g>
   <g>
    <path class="fil5" d="M3605 4111c0,-253 0,-506 0,-759 191,-1000 4386,-900 4483,0 -3,279 -5,559 -8,838 -81,1141 -4459,1060 -4475,-79zm-155 40c0,-288 0,-576 0,-864 204,-1138 4688,-1024 4792,0 -3,318 -6,636 -9,954 -87,1299 -4766,1206 -4783,-90z"/>
    <polygon class="fil5" points="5747,1274 5924,1274 5994,2267 5702,2269 "/>
   </g>
  </g>
 </g>
</svg>
